M48
;DRILL file {KiCad 4.0.4-stable} date 03/25/17 16:19:19
;FORMAT={-:-/ absolute / metric / decimal}
FMAT,2
METRIC,TZ
T1C0.635
T2C0.762
T3C0.800
T4C0.800
T5C1.000
%
G90
G05
M71
T1
X115.644Y-98.852
X119.436Y-97.975
X125.532Y-97.943
X125.562Y-93.99
X127.742Y-90.023
X134.341Y-103.822
X136.957Y-87.782
X145.456Y-86.754
X146.06Y-107.147
X148.641Y-107.107
X150.47Y-94.915
X160.584Y-95.435
X160.591Y-107.099
X162.387Y-92.453
X169.088Y-104.485
X169.271Y-99.852
T2
X117.912Y-81.719
X117.912Y-84.259
X120.452Y-81.719
X120.452Y-84.259
X122.992Y-81.719
X122.992Y-84.259
X125.532Y-81.719
X125.532Y-84.259
X125.557Y-106.535
X128.072Y-81.719
X128.072Y-84.259
X128.097Y-106.535
X130.612Y-81.719
X130.612Y-84.259
X130.637Y-106.535
X133.152Y-81.719
X133.152Y-84.259
X133.177Y-106.535
X135.692Y-81.719
X135.692Y-84.259
X138.232Y-81.719
X138.232Y-84.259
X140.772Y-81.719
X140.772Y-84.259
X143.312Y-81.719
X143.312Y-84.259
X145.852Y-81.719
X145.852Y-84.259
X148.392Y-81.719
X148.392Y-84.259
X150.932Y-81.719
X150.932Y-84.259
X153.472Y-81.719
X153.472Y-84.259
X156.012Y-81.719
X156.012Y-84.259
X158.552Y-81.719
X158.552Y-84.259
X161.092Y-81.719
X161.092Y-84.259
X163.632Y-81.719
X163.632Y-84.259
X166.172Y-81.719
X166.172Y-84.259
T3
X148.292Y-89.847
X148.292Y-91.847
X148.292Y-93.847
X148.292Y-95.847
X148.292Y-97.847
X148.292Y-99.847
X148.292Y-101.847
X148.292Y-103.847
X165.392Y-89.847
X165.392Y-91.847
X165.392Y-93.847
X165.392Y-95.847
X165.392Y-97.847
X165.392Y-99.847
X165.392Y-101.847
X165.392Y-103.847
T4
X111.572Y-86.274
X111.648Y-102.316
X114.254Y-86.274
X124.221Y-101.008
X124.234Y-103.683
X130.312Y-102.494
X158.405Y-86.571
X168.491Y-81.564
X170.216Y-95.783
X173.086Y-92.578
T5
X171.16Y-86.7
X171.16Y-89.24
T0
M30
