%TF.GenerationSoftware,KiCad,Pcbnew,(5.1.6)-1*%
%TF.CreationDate,2020-07-21T16:07:18+02:00*%
%TF.ProjectId,RPI_LORA,5250495f-4c4f-4524-912e-6b696361645f,rev?*%
%TF.SameCoordinates,Original*%
%TF.FileFunction,Soldermask,Bot*%
%TF.FilePolarity,Negative*%
%FSLAX46Y46*%
G04 Gerber Fmt 4.6, Leading zero omitted, Abs format (unit mm)*
G04 Created by KiCad (PCBNEW (5.1.6)-1) date 2020-07-21 16:07:18*
%MOMM*%
%LPD*%
G01*
G04 APERTURE LIST*
%ADD10R,1.700000X1.700000*%
%ADD11O,1.700000X1.700000*%
%ADD12C,3.556000*%
%ADD13C,1.524000*%
%ADD14R,1.524000X1.524000*%
G04 APERTURE END LIST*
D10*
%TO.C,J2*%
X114102000Y-89339400D03*
D11*
X111562000Y-89339400D03*
X114102000Y-91879400D03*
X111562000Y-91879400D03*
X114102000Y-94419400D03*
X111562000Y-94419400D03*
X114102000Y-96959400D03*
X111562000Y-96959400D03*
X114102000Y-99499400D03*
X111562000Y-99499400D03*
X114102000Y-102039400D03*
X111562000Y-102039400D03*
X114102000Y-104579400D03*
X111562000Y-104579400D03*
%TD*%
D12*
%TO.C,U1*%
X164902000Y-105849400D03*
X119182000Y-105849400D03*
X164902000Y-88069400D03*
X119182000Y-88069400D03*
D13*
X161092000Y-86799400D03*
X158552000Y-86799400D03*
X156012000Y-86799400D03*
X153472000Y-86799400D03*
X150932000Y-86799400D03*
X148392000Y-86799400D03*
X145852000Y-86799400D03*
X143312000Y-86799400D03*
X140772000Y-86799400D03*
X138232000Y-86799400D03*
X135692000Y-86799400D03*
X133152000Y-86799400D03*
X161092000Y-107119400D03*
X158552000Y-107119400D03*
X156012000Y-107119400D03*
X153472000Y-107119400D03*
X150932000Y-107119400D03*
X148392000Y-107119400D03*
X145852000Y-107119400D03*
X143312000Y-107119400D03*
X140772000Y-107119400D03*
X138232000Y-107119400D03*
X135692000Y-107119400D03*
X133152000Y-107119400D03*
X130612000Y-107119400D03*
X128072000Y-107119400D03*
X125532000Y-107119400D03*
X122992000Y-107119400D03*
%TD*%
D10*
%TO.C,J1*%
X172522000Y-89339400D03*
D11*
X169982000Y-89339400D03*
X172522000Y-91879400D03*
X169982000Y-91879400D03*
X172522000Y-94419400D03*
X169982000Y-94419400D03*
X172522000Y-96959400D03*
X169982000Y-96959400D03*
X172522000Y-99499400D03*
X169982000Y-99499400D03*
X172522000Y-102039400D03*
X169982000Y-102039400D03*
X172522000Y-104579400D03*
X169982000Y-104579400D03*
%TD*%
D14*
%TO.C,PI1*%
X117912000Y-84259400D03*
D13*
X117912000Y-81719400D03*
X120452000Y-84259400D03*
X120452000Y-81719400D03*
X122992000Y-84259400D03*
X122992000Y-81719400D03*
X125532000Y-84259400D03*
X125532000Y-81719400D03*
X128072000Y-84259400D03*
X128072000Y-81719400D03*
X130612000Y-84259400D03*
X130612000Y-81719400D03*
X133152000Y-84259400D03*
X133152000Y-81719400D03*
X135692000Y-84259400D03*
X135692000Y-81719400D03*
X138232000Y-84259400D03*
X138232000Y-81719400D03*
X140772000Y-84259400D03*
X140772000Y-81719400D03*
X143312000Y-84259400D03*
X143312000Y-81719400D03*
X145852000Y-84259400D03*
X145852000Y-81719400D03*
X148392000Y-84259400D03*
X148392000Y-81719400D03*
X150932000Y-84259400D03*
X150932000Y-81719400D03*
X153472000Y-84259400D03*
X153472000Y-81719400D03*
X156012000Y-84259400D03*
X156012000Y-81719400D03*
X158552000Y-84259400D03*
X158552000Y-81719400D03*
X161092000Y-84259400D03*
X161092000Y-81719400D03*
X163632000Y-84259400D03*
X163632000Y-81719400D03*
X166172000Y-84259400D03*
X166172000Y-81719400D03*
%TD*%
%TO.C,R1*%
G36*
G01*
X127547001Y-99224400D02*
X126646999Y-99224400D01*
G75*
G02*
X126397000Y-98974401I0J249999D01*
G01*
X126397000Y-98324399D01*
G75*
G02*
X126646999Y-98074400I249999J0D01*
G01*
X127547001Y-98074400D01*
G75*
G02*
X127797000Y-98324399I0J-249999D01*
G01*
X127797000Y-98974401D01*
G75*
G02*
X127547001Y-99224400I-249999J0D01*
G01*
G37*
G36*
G01*
X127547001Y-97174400D02*
X126646999Y-97174400D01*
G75*
G02*
X126397000Y-96924401I0J249999D01*
G01*
X126397000Y-96274399D01*
G75*
G02*
X126646999Y-96024400I249999J0D01*
G01*
X127547001Y-96024400D01*
G75*
G02*
X127797000Y-96274399I0J-249999D01*
G01*
X127797000Y-96924401D01*
G75*
G02*
X127547001Y-97174400I-249999J0D01*
G01*
G37*
%TD*%
%TO.C,R2*%
G36*
G01*
X127547001Y-92424400D02*
X126646999Y-92424400D01*
G75*
G02*
X126397000Y-92174401I0J249999D01*
G01*
X126397000Y-91524399D01*
G75*
G02*
X126646999Y-91274400I249999J0D01*
G01*
X127547001Y-91274400D01*
G75*
G02*
X127797000Y-91524399I0J-249999D01*
G01*
X127797000Y-92174401D01*
G75*
G02*
X127547001Y-92424400I-249999J0D01*
G01*
G37*
G36*
G01*
X127547001Y-94474400D02*
X126646999Y-94474400D01*
G75*
G02*
X126397000Y-94224401I0J249999D01*
G01*
X126397000Y-93574399D01*
G75*
G02*
X126646999Y-93324400I249999J0D01*
G01*
X127547001Y-93324400D01*
G75*
G02*
X127797000Y-93574399I0J-249999D01*
G01*
X127797000Y-94224401D01*
G75*
G02*
X127547001Y-94474400I-249999J0D01*
G01*
G37*
%TD*%
M02*
