M48
; DRILL file {KiCad (5.1.6)-1} date 07/21/20 16:07:22
; FORMAT={-:-/ absolute / metric / decimal}
; #@! TF.CreationDate,2020-07-21T16:07:22+02:00
; #@! TF.GenerationSoftware,Kicad,Pcbnew,(5.1.6)-1
; #@! TF.FileFunction,Plated,1,2,PTH
FMAT,2
METRIC
T1C0.635
T2C0.762
T3C1.000
%
G90
G05
T1
X111.308Y-86.799
X112.07Y-81.719
X112.832Y-93.149
X116.159Y-91.117
X116.388Y-87.053
X116.642Y-99.505
X116.677Y-94.184
X116.896Y-97.721
X117.872Y-96.611
X118.275Y-94.922
X118.295Y-91.906
X118.865Y-97.178
X119.459Y-102.871
X119.697Y-90.588
X120.495Y-94.06
X121.214Y-101.277
X121.722Y-97.721
X121.969Y-104.037
X122.274Y-88.113
X122.916Y-90.788
X124.478Y-88.61
X124.516Y-86.799
X124.613Y-101.76
X125.278Y-97.721
X126.357Y-86.799
X126.548Y-89.847
X127.056Y-85.529
X127.31Y-100.515
X127.628Y-102.677
X128.164Y-88.671
X128.58Y-96.959
X128.666Y-99.916
X128.875Y-90.8
X129.252Y-86.031
X129.95Y-99.973
X131.12Y-87.561
X131.685Y-99.505
X133.152Y-95.943
X134.112Y-82.941
X137.187Y-88.807
X137.678Y-92.51
X138.68Y-90.55
X138.977Y-88.545
X139.502Y-105.341
X139.756Y-90.101
X141.026Y-101.277
X141.237Y-89.439
X142.55Y-97.975
X142.737Y-95.22
X143.48Y-89.762
X143.566Y-91.625
X144.582Y-96.197
X145.852Y-96.959
X146.106Y-94.395
X147.93Y-104.361
X148.646Y-92.641
X149.408Y-89.593
X149.408Y-94.927
X149.821Y-85.689
X153.457Y-101.561
X154.295Y-95.916
X154.488Y-93.657
X154.742Y-90.609
X154.742Y-104.579
X155.25Y-98.991
X155.694Y-92.133
X157.282Y-95.435
X158.552Y-91.117
X158.628Y-100.591
X160.838Y-95.943
X161.346Y-90.609
X161.346Y-92.133
X161.854Y-104.579
X163.124Y-92.895
X164.648Y-91.879
X164.648Y-94.673
X168.76Y-93.149
X172.522Y-86.545
T2
X122.992Y-107.119
X125.532Y-107.119
X128.072Y-107.119
X130.612Y-107.119
X133.152Y-86.799
X133.152Y-107.119
X135.692Y-86.799
X135.692Y-107.119
X138.232Y-86.799
X138.232Y-107.119
X140.772Y-86.799
X140.772Y-107.119
X143.312Y-86.799
X143.312Y-107.119
X145.852Y-86.799
X145.852Y-107.119
X148.392Y-86.799
X148.392Y-107.119
X150.932Y-86.799
X150.932Y-107.119
X153.472Y-86.799
X153.472Y-107.119
X156.012Y-86.799
X156.012Y-107.119
X158.552Y-86.799
X158.552Y-107.119
X161.092Y-86.799
X161.092Y-107.119
X117.912Y-81.719
X117.912Y-84.259
X120.452Y-81.719
X120.452Y-84.259
X122.992Y-81.719
X122.992Y-84.259
X125.532Y-81.719
X125.532Y-84.259
X128.072Y-81.719
X128.072Y-84.259
X130.612Y-81.719
X130.612Y-84.259
X133.152Y-81.719
X133.152Y-84.259
X135.692Y-81.719
X135.692Y-84.259
X138.232Y-81.719
X138.232Y-84.259
X140.772Y-81.719
X140.772Y-84.259
X143.312Y-81.719
X143.312Y-84.259
X145.852Y-81.719
X145.852Y-84.259
X148.392Y-81.719
X148.392Y-84.259
X150.932Y-81.719
X150.932Y-84.259
X153.472Y-81.719
X153.472Y-84.259
X156.012Y-81.719
X156.012Y-84.259
X158.552Y-81.719
X158.552Y-84.259
X161.092Y-81.719
X161.092Y-84.259
X163.632Y-81.719
X163.632Y-84.259
X166.172Y-81.719
X166.172Y-84.259
T3
X111.562Y-89.339
X111.562Y-91.879
X111.562Y-94.419
X111.562Y-96.959
X111.562Y-99.499
X111.562Y-102.039
X111.562Y-104.579
X114.102Y-89.339
X114.102Y-91.879
X114.102Y-94.419
X114.102Y-96.959
X114.102Y-99.499
X114.102Y-102.039
X114.102Y-104.579
X169.982Y-89.339
X169.982Y-91.879
X169.982Y-94.419
X169.982Y-96.959
X169.982Y-99.499
X169.982Y-102.039
X169.982Y-104.579
X172.522Y-89.339
X172.522Y-91.879
X172.522Y-94.419
X172.522Y-96.959
X172.522Y-99.499
X172.522Y-102.039
X172.522Y-104.579
T0
M30
