%TF.GenerationSoftware,KiCad,Pcbnew,(5.1.6)-1*%
%TF.CreationDate,2020-07-21T16:07:18+02:00*%
%TF.ProjectId,RPI_LORA,5250495f-4c4f-4524-912e-6b696361645f,rev?*%
%TF.SameCoordinates,Original*%
%TF.FileFunction,Legend,Bot*%
%TF.FilePolarity,Positive*%
%FSLAX46Y46*%
G04 Gerber Fmt 4.6, Leading zero omitted, Abs format (unit mm)*
G04 Created by KiCad (PCBNEW (5.1.6)-1) date 2020-07-21 16:07:18*
%MOMM*%
%LPD*%
G01*
G04 APERTURE LIST*
%ADD10C,0.120000*%
%ADD11C,0.150000*%
G04 APERTURE END LIST*
D10*
%TO.C,R1*%
X126387000Y-97885652D02*
X126387000Y-97363148D01*
X127807000Y-97885652D02*
X127807000Y-97363148D01*
%TO.C,R2*%
X127807000Y-93135652D02*
X127807000Y-92613148D01*
X126387000Y-93135652D02*
X126387000Y-92613148D01*
%TO.C,R1*%
D11*
X129199380Y-97457733D02*
X128723190Y-97124400D01*
X129199380Y-96886304D02*
X128199380Y-96886304D01*
X128199380Y-97267257D01*
X128247000Y-97362495D01*
X128294619Y-97410114D01*
X128389857Y-97457733D01*
X128532714Y-97457733D01*
X128627952Y-97410114D01*
X128675571Y-97362495D01*
X128723190Y-97267257D01*
X128723190Y-96886304D01*
X129199380Y-98410114D02*
X129199380Y-97838685D01*
X129199380Y-98124400D02*
X128199380Y-98124400D01*
X128342238Y-98029161D01*
X128437476Y-97933923D01*
X128485095Y-97838685D01*
%TO.C,R2*%
X129199380Y-92707733D02*
X128723190Y-92374400D01*
X129199380Y-92136304D02*
X128199380Y-92136304D01*
X128199380Y-92517257D01*
X128247000Y-92612495D01*
X128294619Y-92660114D01*
X128389857Y-92707733D01*
X128532714Y-92707733D01*
X128627952Y-92660114D01*
X128675571Y-92612495D01*
X128723190Y-92517257D01*
X128723190Y-92136304D01*
X128294619Y-93088685D02*
X128247000Y-93136304D01*
X128199380Y-93231542D01*
X128199380Y-93469638D01*
X128247000Y-93564876D01*
X128294619Y-93612495D01*
X128389857Y-93660114D01*
X128485095Y-93660114D01*
X128627952Y-93612495D01*
X129199380Y-93041066D01*
X129199380Y-93660114D01*
%TD*%
M02*
