%TF.GenerationSoftware,KiCad,Pcbnew,(5.1.6)-1*%
%TF.CreationDate,2020-07-21T16:07:18+02:00*%
%TF.ProjectId,RPI_LORA,5250495f-4c4f-4524-912e-6b696361645f,rev?*%
%TF.SameCoordinates,Original*%
%TF.FileFunction,Copper,L2,Bot*%
%TF.FilePolarity,Positive*%
%FSLAX46Y46*%
G04 Gerber Fmt 4.6, Leading zero omitted, Abs format (unit mm)*
G04 Created by KiCad (PCBNEW (5.1.6)-1) date 2020-07-21 16:07:18*
%MOMM*%
%LPD*%
G01*
G04 APERTURE LIST*
%TA.AperFunction,ComponentPad*%
%ADD10R,1.700000X1.700000*%
%TD*%
%TA.AperFunction,ComponentPad*%
%ADD11O,1.700000X1.700000*%
%TD*%
%TA.AperFunction,WasherPad*%
%ADD12C,3.556000*%
%TD*%
%TA.AperFunction,ComponentPad*%
%ADD13C,1.524000*%
%TD*%
%TA.AperFunction,ComponentPad*%
%ADD14R,1.524000X1.524000*%
%TD*%
%TA.AperFunction,ViaPad*%
%ADD15C,0.889000*%
%TD*%
%TA.AperFunction,Conductor*%
%ADD16C,0.254000*%
%TD*%
G04 APERTURE END LIST*
D10*
%TO.P,J2,1*%
%TO.N,/5v*%
X114102000Y-89339400D03*
D11*
%TO.P,J2,2*%
%TO.N,3.3v*%
X111562000Y-89339400D03*
%TO.P,J2,3*%
%TO.N,GND*%
X114102000Y-91879400D03*
%TO.P,J2,4*%
%TO.N,SPI_MISO*%
X111562000Y-91879400D03*
%TO.P,J2,5*%
%TO.N,SDA*%
X114102000Y-94419400D03*
%TO.P,J2,6*%
%TO.N,SPI_MOSI*%
X111562000Y-94419400D03*
%TO.P,J2,7*%
%TO.N,SCL*%
X114102000Y-96959400D03*
%TO.P,J2,8*%
%TO.N,SPI_SCK*%
X111562000Y-96959400D03*
%TO.P,J2,9*%
%TO.N,Gpio12*%
X114102000Y-99499400D03*
%TO.P,J2,10*%
%TO.N,SPI_CE0*%
X111562000Y-99499400D03*
%TO.P,J2,11*%
%TO.N,Gpio16*%
X114102000Y-102039400D03*
%TO.P,J2,12*%
%TO.N,Gpio4*%
X111562000Y-102039400D03*
%TO.P,J2,13*%
%TO.N,Gpio18*%
X114102000Y-104579400D03*
%TO.P,J2,14*%
%TO.N,Gpio5*%
X111562000Y-104579400D03*
%TD*%
D12*
%TO.P,U1,*%
%TO.N,*%
X164902000Y-105849400D03*
X119182000Y-105849400D03*
X164902000Y-88069400D03*
X119182000Y-88069400D03*
D13*
%TO.P,U1,1*%
%TO.N,SDA*%
X161092000Y-86799400D03*
%TO.P,U1,2*%
%TO.N,SCL*%
X158552000Y-86799400D03*
%TO.P,U1,3*%
%TO.N,/3*%
X156012000Y-86799400D03*
%TO.P,U1,4*%
%TO.N,/4*%
X153472000Y-86799400D03*
%TO.P,U1,5*%
%TO.N,/5*%
X150932000Y-86799400D03*
%TO.P,U1,6*%
%TO.N,/6*%
X148392000Y-86799400D03*
%TO.P,U1,7*%
%TO.N,/7*%
X145852000Y-86799400D03*
%TO.P,U1,8*%
%TO.N,N/C*%
X143312000Y-86799400D03*
%TO.P,U1,9*%
X140772000Y-86799400D03*
%TO.P,U1,10*%
%TO.N,/5v*%
X138232000Y-86799400D03*
%TO.P,U1,11*%
%TO.N,N/C*%
X135692000Y-86799400D03*
%TO.P,U1,12*%
%TO.N,/BAT*%
X133152000Y-86799400D03*
%TO.P,U1,13*%
%TO.N,N/C*%
X161092000Y-107119400D03*
%TO.P,U1,14*%
%TO.N,Net-(R1-Pad2)*%
X158552000Y-107119400D03*
%TO.P,U1,15*%
%TO.N,Net-(R2-Pad2)*%
X156012000Y-107119400D03*
%TO.P,U1,16*%
%TO.N,/MISO*%
X153472000Y-107119400D03*
%TO.P,U1,17*%
%TO.N,/MOSI*%
X150932000Y-107119400D03*
%TO.P,U1,18*%
%TO.N,/SCK*%
X148392000Y-107119400D03*
%TO.P,U1,19*%
%TO.N,N/C*%
X145852000Y-107119400D03*
%TO.P,U1,20*%
X143312000Y-107119400D03*
%TO.P,U1,21*%
X140772000Y-107119400D03*
%TO.P,U1,22*%
X138232000Y-107119400D03*
%TO.P,U1,23*%
X135692000Y-107119400D03*
%TO.P,U1,24*%
X133152000Y-107119400D03*
%TO.P,U1,25*%
%TO.N,GND*%
X130612000Y-107119400D03*
%TO.P,U1,26*%
%TO.N,N/C*%
X128072000Y-107119400D03*
%TO.P,U1,27*%
%TO.N,3.3v*%
X125532000Y-107119400D03*
%TO.P,U1,28*%
%TO.N,N/C*%
X122992000Y-107119400D03*
%TD*%
D10*
%TO.P,J1,1*%
%TO.N,/5v*%
X172522000Y-89339400D03*
D11*
%TO.P,J1,2*%
%TO.N,3.3v*%
X169982000Y-89339400D03*
%TO.P,J1,3*%
%TO.N,GND*%
X172522000Y-91879400D03*
%TO.P,J1,4*%
%TO.N,/MISO*%
X169982000Y-91879400D03*
%TO.P,J1,5*%
%TO.N,SDA*%
X172522000Y-94419400D03*
%TO.P,J1,6*%
%TO.N,/MOSI*%
X169982000Y-94419400D03*
%TO.P,J1,7*%
%TO.N,SCL*%
X172522000Y-96959400D03*
%TO.P,J1,8*%
%TO.N,/SCK*%
X169982000Y-96959400D03*
%TO.P,J1,9*%
%TO.N,/6*%
X172522000Y-99499400D03*
%TO.P,J1,10*%
%TO.N,/3*%
X169982000Y-99499400D03*
%TO.P,J1,11*%
%TO.N,/7*%
X172522000Y-102039400D03*
%TO.P,J1,12*%
%TO.N,/4*%
X169982000Y-102039400D03*
%TO.P,J1,13*%
%TO.N,/BAT*%
X172522000Y-104579400D03*
%TO.P,J1,14*%
%TO.N,/5*%
X169982000Y-104579400D03*
%TD*%
D14*
%TO.P,PI1,1*%
%TO.N,3.3v*%
X117912000Y-84259400D03*
D13*
%TO.P,PI1,2*%
%TO.N,/5v*%
X117912000Y-81719400D03*
%TO.P,PI1,3*%
%TO.N,SDA*%
X120452000Y-84259400D03*
%TO.P,PI1,4*%
%TO.N,/5v*%
X120452000Y-81719400D03*
%TO.P,PI1,5*%
%TO.N,SCL*%
X122992000Y-84259400D03*
%TO.P,PI1,6*%
%TO.N,GND*%
X122992000Y-81719400D03*
%TO.P,PI1,7*%
%TO.N,Gpio4*%
X125532000Y-84259400D03*
%TO.P,PI1,8*%
%TO.N,/RX*%
X125532000Y-81719400D03*
%TO.P,PI1,9*%
%TO.N,GND*%
X128072000Y-84259400D03*
%TO.P,PI1,10*%
%TO.N,/TX*%
X128072000Y-81719400D03*
%TO.P,PI1,11*%
%TO.N,N/C*%
X130612000Y-84259400D03*
%TO.P,PI1,12*%
%TO.N,Gpio18*%
X130612000Y-81719400D03*
%TO.P,PI1,13*%
%TO.N,N/C*%
X133152000Y-84259400D03*
%TO.P,PI1,14*%
%TO.N,GND*%
X133152000Y-81719400D03*
%TO.P,PI1,15*%
%TO.N,N/C*%
X135692000Y-84259400D03*
%TO.P,PI1,16*%
X135692000Y-81719400D03*
%TO.P,PI1,17*%
%TO.N,3.3v*%
X138232000Y-84259400D03*
%TO.P,PI1,18*%
%TO.N,N/C*%
X138232000Y-81719400D03*
%TO.P,PI1,19*%
%TO.N,SPI_MOSI*%
X140772000Y-84259400D03*
%TO.P,PI1,20*%
%TO.N,GND*%
X140772000Y-81719400D03*
%TO.P,PI1,21*%
%TO.N,SPI_MISO*%
X143312000Y-84259400D03*
%TO.P,PI1,22*%
%TO.N,N/C*%
X143312000Y-81719400D03*
%TO.P,PI1,23*%
%TO.N,SPI_SCK*%
X145852000Y-84259400D03*
%TO.P,PI1,24*%
%TO.N,SPI_CE0*%
X145852000Y-81719400D03*
%TO.P,PI1,25*%
%TO.N,GND*%
X148392000Y-84259400D03*
%TO.P,PI1,26*%
%TO.N,N/C*%
X148392000Y-81719400D03*
%TO.P,PI1,27*%
X150932000Y-84259400D03*
%TO.P,PI1,28*%
X150932000Y-81719400D03*
%TO.P,PI1,29*%
%TO.N,Gpio5*%
X153472000Y-84259400D03*
%TO.P,PI1,30*%
%TO.N,GND*%
X153472000Y-81719400D03*
%TO.P,PI1,31*%
%TO.N,N/C*%
X156012000Y-84259400D03*
%TO.P,PI1,32*%
%TO.N,Gpio12*%
X156012000Y-81719400D03*
%TO.P,PI1,33*%
%TO.N,N/C*%
X158552000Y-84259400D03*
%TO.P,PI1,34*%
%TO.N,GND*%
X158552000Y-81719400D03*
%TO.P,PI1,35*%
%TO.N,N/C*%
X161092000Y-84259400D03*
%TO.P,PI1,36*%
%TO.N,Gpio16*%
X161092000Y-81719400D03*
%TO.P,PI1,37*%
%TO.N,N/C*%
X163632000Y-84259400D03*
%TO.P,PI1,38*%
X163632000Y-81719400D03*
%TO.P,PI1,39*%
%TO.N,GND*%
X166172000Y-84259400D03*
%TO.P,PI1,40*%
%TO.N,N/C*%
X166172000Y-81719400D03*
%TD*%
%TO.P,R1,1*%
%TO.N,/TX*%
%TA.AperFunction,SMDPad,CuDef*%
G36*
G01*
X127547001Y-99224400D02*
X126646999Y-99224400D01*
G75*
G02*
X126397000Y-98974401I0J249999D01*
G01*
X126397000Y-98324399D01*
G75*
G02*
X126646999Y-98074400I249999J0D01*
G01*
X127547001Y-98074400D01*
G75*
G02*
X127797000Y-98324399I0J-249999D01*
G01*
X127797000Y-98974401D01*
G75*
G02*
X127547001Y-99224400I-249999J0D01*
G01*
G37*
%TD.AperFunction*%
%TO.P,R1,2*%
%TO.N,Net-(R1-Pad2)*%
%TA.AperFunction,SMDPad,CuDef*%
G36*
G01*
X127547001Y-97174400D02*
X126646999Y-97174400D01*
G75*
G02*
X126397000Y-96924401I0J249999D01*
G01*
X126397000Y-96274399D01*
G75*
G02*
X126646999Y-96024400I249999J0D01*
G01*
X127547001Y-96024400D01*
G75*
G02*
X127797000Y-96274399I0J-249999D01*
G01*
X127797000Y-96924401D01*
G75*
G02*
X127547001Y-97174400I-249999J0D01*
G01*
G37*
%TD.AperFunction*%
%TD*%
%TO.P,R2,2*%
%TO.N,Net-(R2-Pad2)*%
%TA.AperFunction,SMDPad,CuDef*%
G36*
G01*
X127547001Y-92424400D02*
X126646999Y-92424400D01*
G75*
G02*
X126397000Y-92174401I0J249999D01*
G01*
X126397000Y-91524399D01*
G75*
G02*
X126646999Y-91274400I249999J0D01*
G01*
X127547001Y-91274400D01*
G75*
G02*
X127797000Y-91524399I0J-249999D01*
G01*
X127797000Y-92174401D01*
G75*
G02*
X127547001Y-92424400I-249999J0D01*
G01*
G37*
%TD.AperFunction*%
%TO.P,R2,1*%
%TO.N,/RX*%
%TA.AperFunction,SMDPad,CuDef*%
G36*
G01*
X127547001Y-94474400D02*
X126646999Y-94474400D01*
G75*
G02*
X126397000Y-94224401I0J249999D01*
G01*
X126397000Y-93574399D01*
G75*
G02*
X126646999Y-93324400I249999J0D01*
G01*
X127547001Y-93324400D01*
G75*
G02*
X127797000Y-93574399I0J-249999D01*
G01*
X127797000Y-94224401D01*
G75*
G02*
X127547001Y-94474400I-249999J0D01*
G01*
G37*
%TD.AperFunction*%
%TD*%
D15*
%TO.N,GND*%
X172521880Y-86545420D03*
X161853880Y-104579420D03*
X164647880Y-94673420D03*
X155249880Y-98991420D03*
X158627647Y-100591187D03*
X154741880Y-104579420D03*
X139501880Y-105341420D03*
X141025880Y-101277420D03*
X142549880Y-97975420D03*
X116158800Y-91117420D03*
X116387880Y-87053420D03*
X112069880Y-81719420D03*
X149821497Y-85689037D03*
X149407880Y-89593420D03*
X145851880Y-96959420D03*
X133151880Y-95943420D03*
X154741880Y-90609420D03*
X154487880Y-93657420D03*
X158551880Y-91117420D03*
X161345880Y-90609420D03*
X164647880Y-91879420D03*
X128579880Y-96959420D03*
X131119880Y-87561420D03*
X125277880Y-97721420D03*
X121721880Y-97721420D03*
X121213880Y-101277420D03*
%TO.N,3.3v*%
X147930400Y-104361000D03*
X128665900Y-99916200D03*
%TO.N,SCL*%
X116676700Y-94184400D03*
X122916163Y-90787703D03*
X139755880Y-90101420D03*
X143565880Y-91625420D03*
X148645880Y-92641420D03*
X149407880Y-94927420D03*
X155694380Y-92133420D03*
X163123880Y-92895420D03*
%TO.N,/5v*%
X137678200Y-92509700D03*
X118274700Y-94922200D03*
X131684900Y-99505200D03*
X154295000Y-95916100D03*
X168759700Y-93149400D03*
X117871962Y-96611400D03*
%TO.N,/RX*%
X124515880Y-86799420D03*
X126357380Y-86799420D03*
X126547880Y-89847420D03*
X128875099Y-90799920D03*
%TO.N,/TX*%
X129252200Y-86030600D03*
X128163700Y-88670700D03*
X138679800Y-90550000D03*
X127055880Y-85529420D03*
%TO.N,Net-(R1-Pad2)*%
X124613500Y-101760500D03*
%TO.N,Net-(R2-Pad2)*%
X127627600Y-102676600D03*
%TO.N,/3*%
X161345880Y-92133420D03*
X160837880Y-95943420D03*
X157281880Y-95435420D03*
%TO.N,/4*%
X153457100Y-101561500D03*
%TO.N,/BAT*%
X129949600Y-99972700D03*
X137187000Y-88807300D03*
%TO.N,SPI_MISO*%
X124477995Y-88610330D03*
X118294868Y-91905842D03*
X119696926Y-90588281D03*
X122273583Y-88113123D03*
%TO.N,SPI_MOSI*%
X119459200Y-102871400D03*
%TO.N,SPI_SCK*%
X138976701Y-88544612D03*
X127309880Y-100515420D03*
X116641880Y-99504900D03*
X116895880Y-97721420D03*
%TO.N,Gpio12*%
X146105880Y-94394700D03*
X144581880Y-96197420D03*
%TO.N,SPI_CE0*%
X134111900Y-82940900D03*
X120494700Y-94060000D03*
X118864700Y-97177900D03*
X141237200Y-89438800D03*
X142736700Y-95220200D03*
X121969500Y-104036600D03*
X143480247Y-89761787D03*
%TO.N,Gpio18*%
X111307880Y-86799420D03*
X112831880Y-93149420D03*
%TD*%
D16*
%TO.N,GND*%
X173753001Y-91850480D02*
X173753001Y-87776541D01*
X172522000Y-91879400D02*
X173724081Y-91879400D01*
X173724081Y-91879400D02*
X173753001Y-91850480D01*
X173753001Y-87776541D02*
X172521880Y-86545420D01*
X164647880Y-94673420D02*
X159567880Y-94673420D01*
X159567880Y-94673420D02*
X155249880Y-98991420D01*
X158627647Y-100591187D02*
X154741880Y-104476954D01*
X154741880Y-104476954D02*
X154741880Y-104579420D01*
X139501880Y-105341420D02*
X139501880Y-102801420D01*
X139501880Y-102801420D02*
X141025880Y-101277420D01*
X141025880Y-101277420D02*
X141025880Y-99499420D01*
X141025880Y-99499420D02*
X142549880Y-97975420D01*
X122992000Y-81719400D02*
X122992000Y-80703300D01*
X156851090Y-80018490D02*
X158552000Y-81719400D01*
X122992000Y-80703300D02*
X123676810Y-80018490D01*
X153648810Y-80018490D02*
X153648810Y-81542590D01*
X153648810Y-80018490D02*
X156851090Y-80018490D01*
X153648810Y-81542590D02*
X153472000Y-81719400D01*
X133152000Y-80349680D02*
X132820810Y-80018490D01*
X133152000Y-81719400D02*
X133152000Y-80349680D01*
X123676810Y-80018490D02*
X132820810Y-80018490D01*
X132820810Y-80018490D02*
X153648810Y-80018490D01*
X129468999Y-82862401D02*
X128072000Y-84259400D01*
X132008999Y-82862401D02*
X129468999Y-82862401D01*
X133152000Y-81719400D02*
X132008999Y-82862401D01*
X116818810Y-80018490D02*
X115879880Y-80957420D01*
X123676810Y-80018490D02*
X116818810Y-80018490D01*
X114609910Y-81211390D02*
X112577910Y-81211390D01*
X115879880Y-80957420D02*
X114863880Y-80957420D01*
X114863880Y-80957420D02*
X114609910Y-81211390D01*
X112577910Y-81211390D02*
X112069880Y-81719420D01*
X116158800Y-91117420D02*
X116158800Y-87282500D01*
X116158800Y-87282500D02*
X116387880Y-87053420D01*
X149821497Y-85689037D02*
X149788999Y-85721535D01*
X149788999Y-89212301D02*
X149407880Y-89593420D01*
X149788999Y-85721535D02*
X149788999Y-89212301D01*
X144835880Y-97975420D02*
X145851880Y-96959420D01*
X142549880Y-97975420D02*
X144835880Y-97975420D01*
X147558209Y-95253091D02*
X147558209Y-91443091D01*
X147558209Y-91443091D02*
X149407880Y-89593420D01*
X145851880Y-96959420D02*
X147558209Y-95253091D01*
X154487880Y-90863420D02*
X154741880Y-90609420D01*
X154487880Y-93657420D02*
X154487880Y-90863420D01*
X161345880Y-90609420D02*
X163377880Y-90609420D01*
X163377880Y-90609420D02*
X164647880Y-91879420D01*
X128579880Y-96959420D02*
X128579880Y-95435420D01*
X128579880Y-95435420D02*
X131119880Y-92895420D01*
X131119880Y-92895420D02*
X131119880Y-87561420D01*
X121721880Y-97721420D02*
X121213880Y-98229420D01*
X121213880Y-98229420D02*
X121213880Y-101277420D01*
%TO.N,3.3v*%
X147930400Y-104361000D02*
X152202000Y-100089400D01*
X152202000Y-100089400D02*
X152202000Y-86448600D01*
X152202000Y-86448600D02*
X153004600Y-85646000D01*
X153004600Y-85646000D02*
X165567500Y-85646000D01*
X165567500Y-85646000D02*
X168750700Y-88829200D01*
X168750700Y-88829200D02*
X168750700Y-89339400D01*
X138232000Y-84259400D02*
X136835300Y-85656100D01*
X117912000Y-84259400D02*
X116768700Y-84259400D01*
X169982000Y-89339400D02*
X168750700Y-89339400D01*
X111562000Y-89339400D02*
X112793300Y-89339400D01*
X112793300Y-89339400D02*
X112793300Y-88234800D01*
X112793300Y-88234800D02*
X116768700Y-84259400D01*
X128665900Y-99916200D02*
X129336680Y-99245420D01*
X129441590Y-99145710D02*
X129441591Y-95834275D01*
X129336680Y-99245420D02*
X129341880Y-99245420D01*
X129341880Y-99245420D02*
X129441590Y-99145710D01*
X136361499Y-88914367D02*
X136361499Y-88415801D01*
X129441591Y-95834275D02*
X136361499Y-88914367D01*
X136361499Y-88415801D02*
X137215880Y-87561420D01*
X137215880Y-87474922D02*
X137088999Y-87348041D01*
X137215880Y-87561420D02*
X137215880Y-87474922D01*
X137088999Y-85402401D02*
X138232000Y-84259400D01*
X137088999Y-87348041D02*
X137088999Y-85402401D01*
%TO.N,SCL*%
X115333300Y-96959400D02*
X116676700Y-95616000D01*
X116676700Y-95616000D02*
X116676700Y-94184400D01*
X114102000Y-96959400D02*
X115333300Y-96959400D01*
X122992000Y-84259400D02*
X121721980Y-85529420D01*
X121448082Y-92153218D02*
X120959890Y-92641410D01*
X121448082Y-85831660D02*
X121448082Y-92153218D01*
X121721980Y-85529420D02*
X121721980Y-85557762D01*
X121721980Y-85557762D02*
X121448082Y-85831660D01*
X120959890Y-92641410D02*
X118669554Y-92641411D01*
X117126565Y-94184400D02*
X116676700Y-94184400D01*
X118669554Y-92641411D02*
X117126565Y-94184400D01*
X121448082Y-92153218D02*
X121550648Y-92153218D01*
X121550648Y-92153218D02*
X122916163Y-90787703D01*
X139755880Y-90101420D02*
X139755880Y-92387420D01*
X139755880Y-92387420D02*
X140009880Y-92641420D01*
X140009880Y-92641420D02*
X141279880Y-92641420D01*
X141279880Y-92641420D02*
X142295880Y-91625420D01*
X142295880Y-91625420D02*
X143565880Y-91625420D01*
X148645880Y-92641420D02*
X148645880Y-93911420D01*
X148645880Y-93911420D02*
X148645880Y-94165420D01*
X148645880Y-94165420D02*
X149407880Y-94927420D01*
X155694380Y-92133420D02*
X158551880Y-92133420D01*
X158551880Y-92133420D02*
X159567880Y-92133420D01*
X159567880Y-92133420D02*
X160075880Y-92133420D01*
X162361890Y-93657410D02*
X163123880Y-92895420D01*
X160075880Y-92133420D02*
X161599870Y-93657410D01*
X161599870Y-93657410D02*
X162361890Y-93657410D01*
%TO.N,SDA*%
X172522000Y-93188100D02*
X172011800Y-93188100D01*
X172011800Y-93188100D02*
X171213400Y-92389700D01*
X171213400Y-92389700D02*
X171213400Y-91364900D01*
X171213400Y-91364900D02*
X170496500Y-90648000D01*
X170496500Y-90648000D02*
X164406800Y-90648000D01*
X164406800Y-90648000D02*
X161092000Y-87333200D01*
X161092000Y-87333200D02*
X161092000Y-86799400D01*
X172522000Y-94419400D02*
X172522000Y-93188100D01*
X118801400Y-85910000D02*
X120452000Y-84259400D01*
X118279600Y-85910000D02*
X118801400Y-85910000D01*
X116133880Y-85783420D02*
X118153020Y-85783420D01*
X114102000Y-93188100D02*
X114563800Y-93188100D01*
X114102000Y-94419400D02*
X114102000Y-93188100D01*
X114563800Y-93188100D02*
X115333300Y-92418600D01*
X118153020Y-85783420D02*
X118279600Y-85910000D01*
X115333300Y-92418600D02*
X115333300Y-86584000D01*
X115333300Y-86584000D02*
X116133880Y-85783420D01*
%TO.N,/5v*%
X137678200Y-92509700D02*
X137678200Y-93511900D01*
X137678200Y-93511900D02*
X131684900Y-99505200D01*
X138232000Y-89830000D02*
X137678200Y-90383800D01*
X137678200Y-90383800D02*
X137678200Y-92509700D01*
X117402200Y-81719400D02*
X117912000Y-81719400D01*
X113339900Y-81719400D02*
X110308700Y-84750600D01*
X117912000Y-81719400D02*
X113339900Y-81719400D01*
X110308700Y-89851700D02*
X111066400Y-90609400D01*
X110308700Y-84750600D02*
X110308700Y-89851700D01*
X112832000Y-90609400D02*
X114102000Y-89339400D01*
X111066400Y-90609400D02*
X112832000Y-90609400D01*
X164251639Y-93847919D02*
X168061181Y-93847919D01*
X157061700Y-93149400D02*
X157535860Y-93149400D01*
X168061181Y-93847919D02*
X168759700Y-93149400D01*
X154295000Y-95916100D02*
X157061700Y-93149400D01*
X157535860Y-93149400D02*
X158551880Y-94165420D01*
X158551880Y-94165420D02*
X163934138Y-94165420D01*
X163934138Y-94165420D02*
X164251639Y-93847919D01*
X138232000Y-89830000D02*
X138249300Y-89830000D01*
X138485880Y-89593420D02*
X139042138Y-89593420D01*
X138249300Y-89830000D02*
X138485880Y-89593420D01*
X139042138Y-89593420D02*
X139359639Y-89275919D01*
X139359639Y-89275919D02*
X140073381Y-89275919D01*
X140073381Y-89275919D02*
X140263880Y-89085420D01*
X140263880Y-89085420D02*
X140263880Y-88323420D01*
X140263880Y-88323420D02*
X138993880Y-87053420D01*
X138486020Y-87053420D02*
X138232000Y-86799400D01*
X138993880Y-87053420D02*
X138486020Y-87053420D01*
X118274700Y-96208662D02*
X118274700Y-94922200D01*
X117871962Y-96611400D02*
X118274700Y-96208662D01*
%TO.N,/RX*%
X125532000Y-81719400D02*
X124388999Y-82862401D01*
X124388999Y-86672539D02*
X124515880Y-86799420D01*
X124388999Y-82862401D02*
X124388999Y-86672539D01*
X126357380Y-86799420D02*
X126357380Y-89656920D01*
X126357380Y-89656920D02*
X126547880Y-89847420D01*
X128875099Y-90799920D02*
X128875099Y-92854201D01*
X127829900Y-93899400D02*
X127097000Y-93899400D01*
X128875099Y-92854201D02*
X127829900Y-93899400D01*
%TO.N,/TX*%
X129252200Y-86030600D02*
X128163700Y-87119100D01*
X128163700Y-87119100D02*
X128163700Y-88670700D01*
X138679800Y-94613340D02*
X138679800Y-93678700D01*
X132135880Y-102039420D02*
X132271346Y-102039420D01*
X132271346Y-102039420D02*
X139188613Y-95122153D01*
X126293880Y-100913620D02*
X127231359Y-101851099D01*
X127097000Y-98649400D02*
X126889900Y-98649400D01*
X128544650Y-103020190D02*
X131290576Y-103020190D01*
X126293880Y-99245420D02*
X126293880Y-100913620D01*
X126889900Y-98649400D02*
X126293880Y-99245420D01*
X128453101Y-102280359D02*
X128453101Y-102928641D01*
X127231359Y-101851099D02*
X128023841Y-101851099D01*
X131290576Y-102884724D02*
X132135880Y-102039420D01*
X138679800Y-93678700D02*
X138679800Y-90550000D01*
X128023841Y-101851099D02*
X128453101Y-102280359D01*
X128453101Y-102928641D02*
X128544650Y-103020190D01*
X139188613Y-95122153D02*
X138679800Y-94613340D01*
X131290576Y-103020190D02*
X131290576Y-102884724D01*
X126928600Y-82862800D02*
X128072000Y-81719400D01*
X127055880Y-85529420D02*
X126928600Y-85402140D01*
X126928600Y-85402140D02*
X126928600Y-82862800D01*
%TO.N,Net-(R1-Pad2)*%
X124202700Y-97272600D02*
X124769880Y-96705420D01*
X124769880Y-96705420D02*
X126990980Y-96705420D01*
X124613500Y-101760500D02*
X124202700Y-101349700D01*
X126990980Y-96705420D02*
X127097000Y-96599400D01*
X124202700Y-101349700D02*
X124202700Y-97272600D01*
%TO.N,Net-(R2-Pad2)*%
X127627600Y-102676600D02*
X124303900Y-102676600D01*
X124303900Y-102676600D02*
X123354600Y-101727300D01*
X123354600Y-101727300D02*
X123354600Y-95591800D01*
X123354600Y-95591800D02*
X127097000Y-91849400D01*
%TO.N,/MISO*%
X169982000Y-91879400D02*
X169982000Y-93110700D01*
X153472000Y-107119400D02*
X159822000Y-100769400D01*
X159822000Y-100769400D02*
X170522500Y-100769400D01*
X170522500Y-100769400D02*
X171251800Y-100040100D01*
X171251800Y-100040100D02*
X171251800Y-98942400D01*
X171251800Y-98942400D02*
X171964800Y-98229400D01*
X171964800Y-98229400D02*
X173087700Y-98229400D01*
X173087700Y-98229400D02*
X173763000Y-97554100D01*
X173763000Y-97554100D02*
X173763000Y-96453200D01*
X173763000Y-96453200D02*
X172999200Y-95689400D01*
X172999200Y-95689400D02*
X172033600Y-95689400D01*
X172033600Y-95689400D02*
X171252000Y-94907800D01*
X171252000Y-94907800D02*
X171252000Y-93870500D01*
X171252000Y-93870500D02*
X170492200Y-93110700D01*
X170492200Y-93110700D02*
X169982000Y-93110700D01*
%TO.N,/MOSI*%
X169982000Y-94419400D02*
X169982000Y-95650700D01*
X150932000Y-107119400D02*
X159860600Y-98190800D01*
X159860600Y-98190800D02*
X170568300Y-98190800D01*
X170568300Y-98190800D02*
X171252000Y-97507100D01*
X171252000Y-97507100D02*
X171252000Y-96410500D01*
X171252000Y-96410500D02*
X170492200Y-95650700D01*
X170492200Y-95650700D02*
X169982000Y-95650700D01*
%TO.N,/SCK*%
X148392000Y-107119400D02*
X149067000Y-107119400D01*
X149067000Y-107119400D02*
X159227000Y-96959400D01*
X159227000Y-96959400D02*
X169982000Y-96959400D01*
%TO.N,/3*%
X156012000Y-86799400D02*
X161345880Y-92133280D01*
X161345880Y-92133280D02*
X161345880Y-92133420D01*
X154424379Y-98292921D02*
X157281880Y-95435420D01*
X159519622Y-95943420D02*
X155646121Y-99816921D01*
X155646121Y-99816921D02*
X154853639Y-99816921D01*
X154424379Y-99387661D02*
X154424379Y-98292921D01*
X160837880Y-95943420D02*
X159519622Y-95943420D01*
X154853639Y-99816921D02*
X154424379Y-99387661D01*
%TO.N,/4*%
X153457100Y-101561500D02*
X153457100Y-86814300D01*
X153457100Y-86814300D02*
X153472000Y-86799400D01*
%TO.N,/BAT*%
X137187000Y-88807300D02*
X129949600Y-96044700D01*
X129949600Y-96044700D02*
X129949600Y-99972700D01*
%TO.N,/5*%
X169982000Y-104579400D02*
X168750700Y-104579400D01*
X150932000Y-86799400D02*
X150932000Y-97488100D01*
X150932000Y-97488100D02*
X147058700Y-101361400D01*
X147058700Y-101361400D02*
X147058700Y-107409400D01*
X147058700Y-107409400D02*
X147915400Y-108266100D01*
X147915400Y-108266100D02*
X165574200Y-108266100D01*
X165574200Y-108266100D02*
X168750700Y-105089600D01*
X168750700Y-105089600D02*
X168750700Y-104579400D01*
%TO.N,SPI_MISO*%
X118294868Y-91905842D02*
X118379365Y-91905842D01*
X118379365Y-91905842D02*
X119696926Y-90588281D01*
X122273583Y-88113123D02*
X122273583Y-89129123D01*
X122273583Y-89129123D02*
X122781583Y-89129123D01*
X122781583Y-89129123D02*
X123499880Y-89847420D01*
X123499880Y-89847420D02*
X124007880Y-89847420D01*
X124477995Y-89377305D02*
X124477995Y-88610330D01*
X124007880Y-89847420D02*
X124477995Y-89377305D01*
%TO.N,SPI_MOSI*%
X119459200Y-102871400D02*
X123243600Y-102871400D01*
X123243600Y-102871400D02*
X123900400Y-103528200D01*
X123900400Y-103528200D02*
X131501000Y-103528200D01*
X131501000Y-103528200D02*
X142105300Y-92923900D01*
X142105300Y-85592700D02*
X140772000Y-84259400D01*
X142105300Y-92923900D02*
X143791400Y-92923900D01*
X143791400Y-92923900D02*
X144835880Y-91879420D01*
X144835880Y-91879420D02*
X144835880Y-90609420D01*
X144455001Y-85996761D02*
X144050940Y-85592700D01*
X144050940Y-85592700D02*
X142105300Y-85592700D01*
X144455001Y-90228541D02*
X144455001Y-85996761D01*
X144835880Y-90609420D02*
X144455001Y-90228541D01*
%TO.N,SPI_SCK*%
X138798954Y-88544612D02*
X137242146Y-90101420D01*
X138976701Y-88544612D02*
X138798954Y-88544612D01*
X137242146Y-90101420D02*
X130865880Y-96477686D01*
X130865880Y-96477686D02*
X130865880Y-98991420D01*
X130775101Y-99193257D02*
X130775101Y-100606199D01*
X130865880Y-98991420D02*
X130865880Y-99102478D01*
X130865880Y-99102478D02*
X130775101Y-99193257D01*
X130775101Y-100606199D02*
X130103880Y-101277420D01*
X130103880Y-101277420D02*
X128071880Y-101277420D01*
X128071880Y-101277420D02*
X127309880Y-100515420D01*
X116641880Y-99504900D02*
X116641880Y-97975420D01*
X116641880Y-97975420D02*
X116895880Y-97721420D01*
%TO.N,Gpio12*%
X146105880Y-94394700D02*
X146105880Y-94673420D01*
X146105880Y-94673420D02*
X144581880Y-96197420D01*
%TO.N,SPI_CE0*%
X142736700Y-95220200D02*
X133920300Y-104036600D01*
X133920300Y-104036600D02*
X121969500Y-104036600D01*
X118864700Y-97177900D02*
X118864700Y-95690000D01*
X118864700Y-95690000D02*
X120494700Y-94060000D01*
X134111900Y-82940900D02*
X134422000Y-82630800D01*
X134422000Y-82630800D02*
X134422000Y-81346500D01*
X134422000Y-81346500D02*
X135242000Y-80526500D01*
X135242000Y-80526500D02*
X144659100Y-80526500D01*
X144659100Y-80526500D02*
X145852000Y-81719400D01*
X141560187Y-89761787D02*
X141237200Y-89438800D01*
X143480247Y-89761787D02*
X141560187Y-89761787D01*
%TO.N,Gpio16*%
X120836700Y-96536000D02*
X115333300Y-102039400D01*
X114102000Y-102039400D02*
X115333300Y-102039400D01*
X121975880Y-95181420D02*
X120836700Y-96320600D01*
X126015990Y-92211976D02*
X123046546Y-95181420D01*
X126015990Y-91263024D02*
X126015990Y-92211976D01*
X126385624Y-90893390D02*
X126015990Y-91263024D01*
X127787910Y-90893390D02*
X126385624Y-90893390D01*
X149788700Y-81974800D02*
X148851800Y-82911700D01*
X150458500Y-80576100D02*
X149788700Y-81245900D01*
X152075300Y-81974800D02*
X152075300Y-81245800D01*
X161092000Y-81719400D02*
X159899600Y-82911800D01*
X135371300Y-82911700D02*
X134548600Y-83734400D01*
X133625400Y-85402800D02*
X129792300Y-85402800D01*
X149788700Y-81245900D02*
X149788700Y-81974800D01*
X120836700Y-96320600D02*
X120836700Y-96536000D01*
X152075300Y-81245800D02*
X151405600Y-80576100D01*
X134548600Y-83734400D02*
X134548600Y-84479600D01*
X151405600Y-80576100D02*
X150458500Y-80576100D01*
X123046546Y-95181420D02*
X121975880Y-95181420D01*
X159899600Y-82911800D02*
X153012300Y-82911800D01*
X128071880Y-89800622D02*
X128071880Y-90609420D01*
X153012300Y-82911800D02*
X152075300Y-81974800D01*
X134548600Y-84479600D02*
X133625400Y-85402800D01*
X129792300Y-85402800D02*
X129594300Y-85204800D01*
X129594300Y-85204800D02*
X128910200Y-85204800D01*
X128910200Y-85204800D02*
X127337900Y-86777100D01*
X127337900Y-89066642D02*
X128071880Y-89800622D01*
X127337900Y-86777100D02*
X127337900Y-89066642D01*
X128071880Y-90609420D02*
X127787910Y-90893390D01*
X147806160Y-82911700D02*
X135371300Y-82911700D01*
X148851800Y-82911700D02*
X147806160Y-82911700D01*
%TO.N,Gpio4*%
X125531880Y-89339420D02*
X125531880Y-88069420D01*
X121721880Y-93149420D02*
X125531880Y-89339420D01*
X118879979Y-93149420D02*
X121721880Y-93149420D01*
X117449199Y-94580200D02*
X118879979Y-93149420D01*
X111562000Y-100808100D02*
X112072200Y-100808100D01*
X117448900Y-95627000D02*
X117448900Y-94580200D01*
X111562000Y-102039400D02*
X111562000Y-100808100D01*
X112072200Y-100808100D02*
X112832000Y-100048300D01*
X112832000Y-98951700D02*
X113515700Y-98268000D01*
X114807900Y-98268000D02*
X117448900Y-95627000D01*
X112832000Y-100048300D02*
X112832000Y-98951700D01*
X113515700Y-98268000D02*
X114807900Y-98268000D01*
X117448900Y-94580200D02*
X117449199Y-94580200D01*
X125531880Y-84259520D02*
X125532000Y-84259400D01*
X125531880Y-88069420D02*
X125531880Y-84259520D01*
%TO.N,Gpio18*%
X110316300Y-102598100D02*
X111027600Y-103309400D01*
X110316300Y-96451700D02*
X110316300Y-102598100D01*
X111078600Y-95689400D02*
X110316300Y-96451700D01*
X130612000Y-81719400D02*
X129419100Y-80526500D01*
X125037900Y-80526500D02*
X124262000Y-81302400D01*
X112832000Y-103309400D02*
X114102000Y-104579400D01*
X111027600Y-103309400D02*
X112832000Y-103309400D01*
X129419100Y-80526500D02*
X125037900Y-80526500D01*
X124135001Y-81338299D02*
X124135001Y-82268041D01*
X124135001Y-82268041D02*
X123540641Y-82862401D01*
X124262000Y-81302400D02*
X124170900Y-81302400D01*
X124170900Y-81302400D02*
X124135001Y-81338299D01*
X123540641Y-82862401D02*
X117022899Y-82862401D01*
X117022899Y-82862401D02*
X116895880Y-82989420D01*
X116895880Y-82989420D02*
X115117880Y-82989420D01*
X115117880Y-82989420D02*
X111307880Y-86799420D01*
X112831880Y-93149420D02*
X112831880Y-95689380D01*
X112831880Y-95689380D02*
X112831900Y-95689400D01*
X112831900Y-95689400D02*
X111078600Y-95689400D01*
%TO.N,Gpio5*%
X111562000Y-104579400D02*
X112793300Y-104579400D01*
X153472000Y-84259400D02*
X152328700Y-83116100D01*
X152328700Y-83116100D02*
X150458500Y-83116100D01*
X150458500Y-83116100D02*
X149788700Y-83785900D01*
X149788700Y-83785900D02*
X149788700Y-84554400D01*
X149788700Y-84554400D02*
X148897600Y-85445500D01*
X148897600Y-85445500D02*
X148129000Y-85445500D01*
X148129000Y-85445500D02*
X147050200Y-86524300D01*
X147050200Y-86524300D02*
X147050200Y-92132600D01*
X147050200Y-92132600D02*
X133583800Y-105599000D01*
X133583800Y-105599000D02*
X122721700Y-105599000D01*
X122721700Y-105599000D02*
X120270300Y-108050400D01*
X120270300Y-108050400D02*
X115754100Y-108050400D01*
X115754100Y-108050400D02*
X112793300Y-105089600D01*
X112793300Y-105089600D02*
X112793300Y-104579400D01*
%TD*%
%TO.N,GND*%
G36*
X130805748Y-107105258D02*
G01*
X130791605Y-107119400D01*
X131577565Y-107905360D01*
X131817656Y-107838380D01*
X131881485Y-107702640D01*
X131913995Y-107781127D01*
X132066880Y-108009935D01*
X132261465Y-108204520D01*
X132490273Y-108357405D01*
X132744510Y-108462714D01*
X133014408Y-108516400D01*
X133289592Y-108516400D01*
X133559490Y-108462714D01*
X133813727Y-108357405D01*
X134042535Y-108204520D01*
X134237120Y-108009935D01*
X134390005Y-107781127D01*
X134422000Y-107703885D01*
X134453995Y-107781127D01*
X134606880Y-108009935D01*
X134801465Y-108204520D01*
X135030273Y-108357405D01*
X135284510Y-108462714D01*
X135554408Y-108516400D01*
X135829592Y-108516400D01*
X136099490Y-108462714D01*
X136353727Y-108357405D01*
X136582535Y-108204520D01*
X136777120Y-108009935D01*
X136930005Y-107781127D01*
X136962000Y-107703885D01*
X136993995Y-107781127D01*
X137146880Y-108009935D01*
X137341465Y-108204520D01*
X137570273Y-108357405D01*
X137824510Y-108462714D01*
X138094408Y-108516400D01*
X138369592Y-108516400D01*
X138639490Y-108462714D01*
X138893727Y-108357405D01*
X139122535Y-108204520D01*
X139317120Y-108009935D01*
X139470005Y-107781127D01*
X139502000Y-107703885D01*
X139533995Y-107781127D01*
X139686880Y-108009935D01*
X139881465Y-108204520D01*
X140110273Y-108357405D01*
X140364510Y-108462714D01*
X140634408Y-108516400D01*
X140909592Y-108516400D01*
X141179490Y-108462714D01*
X141433727Y-108357405D01*
X141662535Y-108204520D01*
X141857120Y-108009935D01*
X142010005Y-107781127D01*
X142042000Y-107703885D01*
X142073995Y-107781127D01*
X142226880Y-108009935D01*
X142421465Y-108204520D01*
X142650273Y-108357405D01*
X142904510Y-108462714D01*
X143174408Y-108516400D01*
X143449592Y-108516400D01*
X143719490Y-108462714D01*
X143973727Y-108357405D01*
X144202535Y-108204520D01*
X144397120Y-108009935D01*
X144550005Y-107781127D01*
X144582000Y-107703885D01*
X144613995Y-107781127D01*
X144766880Y-108009935D01*
X144961465Y-108204520D01*
X145190273Y-108357405D01*
X145444510Y-108462714D01*
X145714408Y-108516400D01*
X145989592Y-108516400D01*
X146259490Y-108462714D01*
X146513727Y-108357405D01*
X146742535Y-108204520D01*
X146759362Y-108187693D01*
X147350120Y-108778451D01*
X147359598Y-108790000D01*
X120457173Y-108790000D01*
X120563315Y-108757802D01*
X120695692Y-108687045D01*
X120811722Y-108591822D01*
X120835584Y-108562746D01*
X121713930Y-107684401D01*
X121753995Y-107781127D01*
X121906880Y-108009935D01*
X122101465Y-108204520D01*
X122330273Y-108357405D01*
X122584510Y-108462714D01*
X122854408Y-108516400D01*
X123129592Y-108516400D01*
X123399490Y-108462714D01*
X123653727Y-108357405D01*
X123882535Y-108204520D01*
X124077120Y-108009935D01*
X124230005Y-107781127D01*
X124262000Y-107703885D01*
X124293995Y-107781127D01*
X124446880Y-108009935D01*
X124641465Y-108204520D01*
X124870273Y-108357405D01*
X125124510Y-108462714D01*
X125394408Y-108516400D01*
X125669592Y-108516400D01*
X125939490Y-108462714D01*
X126193727Y-108357405D01*
X126422535Y-108204520D01*
X126617120Y-108009935D01*
X126770005Y-107781127D01*
X126802000Y-107703885D01*
X126833995Y-107781127D01*
X126986880Y-108009935D01*
X127181465Y-108204520D01*
X127410273Y-108357405D01*
X127664510Y-108462714D01*
X127934408Y-108516400D01*
X128209592Y-108516400D01*
X128479490Y-108462714D01*
X128733727Y-108357405D01*
X128962535Y-108204520D01*
X129082090Y-108084965D01*
X129826040Y-108084965D01*
X129893020Y-108325056D01*
X130142048Y-108442156D01*
X130409135Y-108508423D01*
X130684017Y-108521310D01*
X130956133Y-108480322D01*
X131215023Y-108387036D01*
X131330980Y-108325056D01*
X131397960Y-108084965D01*
X130612000Y-107299005D01*
X129826040Y-108084965D01*
X129082090Y-108084965D01*
X129157120Y-108009935D01*
X129310005Y-107781127D01*
X129339692Y-107709457D01*
X129344364Y-107722423D01*
X129406344Y-107838380D01*
X129646435Y-107905360D01*
X130432395Y-107119400D01*
X130418253Y-107105258D01*
X130597858Y-106925653D01*
X130612000Y-106939795D01*
X130626143Y-106925653D01*
X130805748Y-107105258D01*
G37*
X130805748Y-107105258D02*
X130791605Y-107119400D01*
X131577565Y-107905360D01*
X131817656Y-107838380D01*
X131881485Y-107702640D01*
X131913995Y-107781127D01*
X132066880Y-108009935D01*
X132261465Y-108204520D01*
X132490273Y-108357405D01*
X132744510Y-108462714D01*
X133014408Y-108516400D01*
X133289592Y-108516400D01*
X133559490Y-108462714D01*
X133813727Y-108357405D01*
X134042535Y-108204520D01*
X134237120Y-108009935D01*
X134390005Y-107781127D01*
X134422000Y-107703885D01*
X134453995Y-107781127D01*
X134606880Y-108009935D01*
X134801465Y-108204520D01*
X135030273Y-108357405D01*
X135284510Y-108462714D01*
X135554408Y-108516400D01*
X135829592Y-108516400D01*
X136099490Y-108462714D01*
X136353727Y-108357405D01*
X136582535Y-108204520D01*
X136777120Y-108009935D01*
X136930005Y-107781127D01*
X136962000Y-107703885D01*
X136993995Y-107781127D01*
X137146880Y-108009935D01*
X137341465Y-108204520D01*
X137570273Y-108357405D01*
X137824510Y-108462714D01*
X138094408Y-108516400D01*
X138369592Y-108516400D01*
X138639490Y-108462714D01*
X138893727Y-108357405D01*
X139122535Y-108204520D01*
X139317120Y-108009935D01*
X139470005Y-107781127D01*
X139502000Y-107703885D01*
X139533995Y-107781127D01*
X139686880Y-108009935D01*
X139881465Y-108204520D01*
X140110273Y-108357405D01*
X140364510Y-108462714D01*
X140634408Y-108516400D01*
X140909592Y-108516400D01*
X141179490Y-108462714D01*
X141433727Y-108357405D01*
X141662535Y-108204520D01*
X141857120Y-108009935D01*
X142010005Y-107781127D01*
X142042000Y-107703885D01*
X142073995Y-107781127D01*
X142226880Y-108009935D01*
X142421465Y-108204520D01*
X142650273Y-108357405D01*
X142904510Y-108462714D01*
X143174408Y-108516400D01*
X143449592Y-108516400D01*
X143719490Y-108462714D01*
X143973727Y-108357405D01*
X144202535Y-108204520D01*
X144397120Y-108009935D01*
X144550005Y-107781127D01*
X144582000Y-107703885D01*
X144613995Y-107781127D01*
X144766880Y-108009935D01*
X144961465Y-108204520D01*
X145190273Y-108357405D01*
X145444510Y-108462714D01*
X145714408Y-108516400D01*
X145989592Y-108516400D01*
X146259490Y-108462714D01*
X146513727Y-108357405D01*
X146742535Y-108204520D01*
X146759362Y-108187693D01*
X147350120Y-108778451D01*
X147359598Y-108790000D01*
X120457173Y-108790000D01*
X120563315Y-108757802D01*
X120695692Y-108687045D01*
X120811722Y-108591822D01*
X120835584Y-108562746D01*
X121713930Y-107684401D01*
X121753995Y-107781127D01*
X121906880Y-108009935D01*
X122101465Y-108204520D01*
X122330273Y-108357405D01*
X122584510Y-108462714D01*
X122854408Y-108516400D01*
X123129592Y-108516400D01*
X123399490Y-108462714D01*
X123653727Y-108357405D01*
X123882535Y-108204520D01*
X124077120Y-108009935D01*
X124230005Y-107781127D01*
X124262000Y-107703885D01*
X124293995Y-107781127D01*
X124446880Y-108009935D01*
X124641465Y-108204520D01*
X124870273Y-108357405D01*
X125124510Y-108462714D01*
X125394408Y-108516400D01*
X125669592Y-108516400D01*
X125939490Y-108462714D01*
X126193727Y-108357405D01*
X126422535Y-108204520D01*
X126617120Y-108009935D01*
X126770005Y-107781127D01*
X126802000Y-107703885D01*
X126833995Y-107781127D01*
X126986880Y-108009935D01*
X127181465Y-108204520D01*
X127410273Y-108357405D01*
X127664510Y-108462714D01*
X127934408Y-108516400D01*
X128209592Y-108516400D01*
X128479490Y-108462714D01*
X128733727Y-108357405D01*
X128962535Y-108204520D01*
X129082090Y-108084965D01*
X129826040Y-108084965D01*
X129893020Y-108325056D01*
X130142048Y-108442156D01*
X130409135Y-108508423D01*
X130684017Y-108521310D01*
X130956133Y-108480322D01*
X131215023Y-108387036D01*
X131330980Y-108325056D01*
X131397960Y-108084965D01*
X130612000Y-107299005D01*
X129826040Y-108084965D01*
X129082090Y-108084965D01*
X129157120Y-108009935D01*
X129310005Y-107781127D01*
X129339692Y-107709457D01*
X129344364Y-107722423D01*
X129406344Y-107838380D01*
X129646435Y-107905360D01*
X130432395Y-107119400D01*
X130418253Y-107105258D01*
X130597858Y-106925653D01*
X130612000Y-106939795D01*
X130626143Y-106925653D01*
X130805748Y-107105258D01*
G36*
X168554068Y-101606242D02*
G01*
X168497000Y-101893140D01*
X168497000Y-102185660D01*
X168554068Y-102472558D01*
X168666010Y-102742811D01*
X168828525Y-102986032D01*
X169035368Y-103192875D01*
X169209760Y-103309400D01*
X169035368Y-103425925D01*
X168828525Y-103632768D01*
X168704586Y-103818256D01*
X168601322Y-103828426D01*
X168457685Y-103871998D01*
X168325308Y-103942755D01*
X168209278Y-104037978D01*
X168114055Y-104154008D01*
X168043298Y-104286385D01*
X167999726Y-104430022D01*
X167985014Y-104579400D01*
X167988700Y-104616826D01*
X167988700Y-104773969D01*
X167287779Y-105474891D01*
X167222269Y-105145554D01*
X167040372Y-104706416D01*
X166776299Y-104311202D01*
X166440198Y-103975101D01*
X166044984Y-103711028D01*
X165605846Y-103529131D01*
X165139660Y-103436400D01*
X164664340Y-103436400D01*
X164198154Y-103529131D01*
X163759016Y-103711028D01*
X163363802Y-103975101D01*
X163027701Y-104311202D01*
X162763628Y-104706416D01*
X162581731Y-105145554D01*
X162489000Y-105611740D01*
X162489000Y-106087060D01*
X162581731Y-106553246D01*
X162763628Y-106992384D01*
X163027701Y-107387598D01*
X163144203Y-107504100D01*
X162439847Y-107504100D01*
X162489000Y-107256992D01*
X162489000Y-106981808D01*
X162435314Y-106711910D01*
X162330005Y-106457673D01*
X162177120Y-106228865D01*
X161982535Y-106034280D01*
X161753727Y-105881395D01*
X161499490Y-105776086D01*
X161229592Y-105722400D01*
X160954408Y-105722400D01*
X160684510Y-105776086D01*
X160430273Y-105881395D01*
X160201465Y-106034280D01*
X160006880Y-106228865D01*
X159853995Y-106457673D01*
X159822000Y-106534915D01*
X159790005Y-106457673D01*
X159637120Y-106228865D01*
X159442535Y-106034280D01*
X159213727Y-105881395D01*
X158959490Y-105776086D01*
X158689592Y-105722400D01*
X158414408Y-105722400D01*
X158144510Y-105776086D01*
X157890273Y-105881395D01*
X157661465Y-106034280D01*
X157466880Y-106228865D01*
X157313995Y-106457673D01*
X157282000Y-106534915D01*
X157250005Y-106457673D01*
X157097120Y-106228865D01*
X156902535Y-106034280D01*
X156673727Y-105881395D01*
X156419490Y-105776086D01*
X156149592Y-105722400D01*
X155946630Y-105722400D01*
X160137631Y-101531400D01*
X168585068Y-101531400D01*
X168554068Y-101606242D01*
G37*
X168554068Y-101606242D02*
X168497000Y-101893140D01*
X168497000Y-102185660D01*
X168554068Y-102472558D01*
X168666010Y-102742811D01*
X168828525Y-102986032D01*
X169035368Y-103192875D01*
X169209760Y-103309400D01*
X169035368Y-103425925D01*
X168828525Y-103632768D01*
X168704586Y-103818256D01*
X168601322Y-103828426D01*
X168457685Y-103871998D01*
X168325308Y-103942755D01*
X168209278Y-104037978D01*
X168114055Y-104154008D01*
X168043298Y-104286385D01*
X167999726Y-104430022D01*
X167985014Y-104579400D01*
X167988700Y-104616826D01*
X167988700Y-104773969D01*
X167287779Y-105474891D01*
X167222269Y-105145554D01*
X167040372Y-104706416D01*
X166776299Y-104311202D01*
X166440198Y-103975101D01*
X166044984Y-103711028D01*
X165605846Y-103529131D01*
X165139660Y-103436400D01*
X164664340Y-103436400D01*
X164198154Y-103529131D01*
X163759016Y-103711028D01*
X163363802Y-103975101D01*
X163027701Y-104311202D01*
X162763628Y-104706416D01*
X162581731Y-105145554D01*
X162489000Y-105611740D01*
X162489000Y-106087060D01*
X162581731Y-106553246D01*
X162763628Y-106992384D01*
X163027701Y-107387598D01*
X163144203Y-107504100D01*
X162439847Y-107504100D01*
X162489000Y-107256992D01*
X162489000Y-106981808D01*
X162435314Y-106711910D01*
X162330005Y-106457673D01*
X162177120Y-106228865D01*
X161982535Y-106034280D01*
X161753727Y-105881395D01*
X161499490Y-105776086D01*
X161229592Y-105722400D01*
X160954408Y-105722400D01*
X160684510Y-105776086D01*
X160430273Y-105881395D01*
X160201465Y-106034280D01*
X160006880Y-106228865D01*
X159853995Y-106457673D01*
X159822000Y-106534915D01*
X159790005Y-106457673D01*
X159637120Y-106228865D01*
X159442535Y-106034280D01*
X159213727Y-105881395D01*
X158959490Y-105776086D01*
X158689592Y-105722400D01*
X158414408Y-105722400D01*
X158144510Y-105776086D01*
X157890273Y-105881395D01*
X157661465Y-106034280D01*
X157466880Y-106228865D01*
X157313995Y-106457673D01*
X157282000Y-106534915D01*
X157250005Y-106457673D01*
X157097120Y-106228865D01*
X156902535Y-106034280D01*
X156673727Y-105881395D01*
X156419490Y-105776086D01*
X156149592Y-105722400D01*
X155946630Y-105722400D01*
X160137631Y-101531400D01*
X168585068Y-101531400D01*
X168554068Y-101606242D01*
G36*
X122592600Y-101689877D02*
G01*
X122588914Y-101727300D01*
X122592600Y-101764723D01*
X122592600Y-101764725D01*
X122603626Y-101876677D01*
X122647198Y-102020314D01*
X122666636Y-102056679D01*
X122694815Y-102109400D01*
X120223843Y-102109400D01*
X120147341Y-102032898D01*
X119970535Y-101914760D01*
X119774078Y-101833385D01*
X119565521Y-101791900D01*
X119352879Y-101791900D01*
X119144322Y-101833385D01*
X118947865Y-101914760D01*
X118771059Y-102032898D01*
X118620698Y-102183259D01*
X118502560Y-102360065D01*
X118421185Y-102556522D01*
X118379700Y-102765079D01*
X118379700Y-102977721D01*
X118421185Y-103186278D01*
X118502560Y-103382735D01*
X118586040Y-103507671D01*
X118478154Y-103529131D01*
X118039016Y-103711028D01*
X117643802Y-103975101D01*
X117307701Y-104311202D01*
X117043628Y-104706416D01*
X116861731Y-105145554D01*
X116769000Y-105611740D01*
X116769000Y-106087060D01*
X116861731Y-106553246D01*
X117043628Y-106992384D01*
X117241419Y-107288400D01*
X116069730Y-107288400D01*
X114714413Y-105933083D01*
X114805411Y-105895390D01*
X115048632Y-105732875D01*
X115255475Y-105526032D01*
X115417990Y-105282811D01*
X115529932Y-105012558D01*
X115587000Y-104725660D01*
X115587000Y-104433140D01*
X115529932Y-104146242D01*
X115417990Y-103875989D01*
X115255475Y-103632768D01*
X115048632Y-103425925D01*
X114874240Y-103309400D01*
X115048632Y-103192875D01*
X115255475Y-102986032D01*
X115379414Y-102800544D01*
X115482678Y-102790374D01*
X115626315Y-102746802D01*
X115758692Y-102676045D01*
X115874722Y-102580822D01*
X115898584Y-102551746D01*
X121349052Y-97101279D01*
X121378122Y-97077422D01*
X121421314Y-97024792D01*
X121473345Y-96961393D01*
X121544101Y-96829016D01*
X121548917Y-96813140D01*
X121587674Y-96685377D01*
X121591839Y-96643092D01*
X122291511Y-95943420D01*
X122592601Y-95943420D01*
X122592600Y-101689877D01*
G37*
X122592600Y-101689877D02*
X122588914Y-101727300D01*
X122592600Y-101764723D01*
X122592600Y-101764725D01*
X122603626Y-101876677D01*
X122647198Y-102020314D01*
X122666636Y-102056679D01*
X122694815Y-102109400D01*
X120223843Y-102109400D01*
X120147341Y-102032898D01*
X119970535Y-101914760D01*
X119774078Y-101833385D01*
X119565521Y-101791900D01*
X119352879Y-101791900D01*
X119144322Y-101833385D01*
X118947865Y-101914760D01*
X118771059Y-102032898D01*
X118620698Y-102183259D01*
X118502560Y-102360065D01*
X118421185Y-102556522D01*
X118379700Y-102765079D01*
X118379700Y-102977721D01*
X118421185Y-103186278D01*
X118502560Y-103382735D01*
X118586040Y-103507671D01*
X118478154Y-103529131D01*
X118039016Y-103711028D01*
X117643802Y-103975101D01*
X117307701Y-104311202D01*
X117043628Y-104706416D01*
X116861731Y-105145554D01*
X116769000Y-105611740D01*
X116769000Y-106087060D01*
X116861731Y-106553246D01*
X117043628Y-106992384D01*
X117241419Y-107288400D01*
X116069730Y-107288400D01*
X114714413Y-105933083D01*
X114805411Y-105895390D01*
X115048632Y-105732875D01*
X115255475Y-105526032D01*
X115417990Y-105282811D01*
X115529932Y-105012558D01*
X115587000Y-104725660D01*
X115587000Y-104433140D01*
X115529932Y-104146242D01*
X115417990Y-103875989D01*
X115255475Y-103632768D01*
X115048632Y-103425925D01*
X114874240Y-103309400D01*
X115048632Y-103192875D01*
X115255475Y-102986032D01*
X115379414Y-102800544D01*
X115482678Y-102790374D01*
X115626315Y-102746802D01*
X115758692Y-102676045D01*
X115874722Y-102580822D01*
X115898584Y-102551746D01*
X121349052Y-97101279D01*
X121378122Y-97077422D01*
X121421314Y-97024792D01*
X121473345Y-96961393D01*
X121544101Y-96829016D01*
X121548917Y-96813140D01*
X121587674Y-96685377D01*
X121591839Y-96643092D01*
X122291511Y-95943420D01*
X122592601Y-95943420D01*
X122592600Y-101689877D01*
G36*
X147566380Y-92747741D02*
G01*
X147607865Y-92956298D01*
X147689240Y-93152755D01*
X147807378Y-93329561D01*
X147883881Y-93406064D01*
X147883881Y-93873985D01*
X147883880Y-93873995D01*
X147883880Y-94127997D01*
X147880194Y-94165420D01*
X147883880Y-94202843D01*
X147883880Y-94202846D01*
X147894906Y-94314798D01*
X147938478Y-94458435D01*
X148009235Y-94590812D01*
X148104458Y-94706842D01*
X148133532Y-94730702D01*
X148328380Y-94925550D01*
X148328380Y-95033741D01*
X148369865Y-95242298D01*
X148451240Y-95438755D01*
X148569378Y-95615561D01*
X148719739Y-95765922D01*
X148896545Y-95884060D01*
X149093002Y-95965435D01*
X149301559Y-96006920D01*
X149514201Y-96006920D01*
X149722758Y-95965435D01*
X149919215Y-95884060D01*
X150096021Y-95765922D01*
X150170001Y-95691942D01*
X150170001Y-97172468D01*
X146546354Y-100796116D01*
X146517278Y-100819978D01*
X146473896Y-100872840D01*
X146422055Y-100936008D01*
X146396189Y-100984400D01*
X146351298Y-101068386D01*
X146307726Y-101212023D01*
X146297722Y-101313601D01*
X146293014Y-101361400D01*
X146296700Y-101398823D01*
X146296701Y-105791499D01*
X146259490Y-105776086D01*
X145989592Y-105722400D01*
X145714408Y-105722400D01*
X145444510Y-105776086D01*
X145190273Y-105881395D01*
X144961465Y-106034280D01*
X144766880Y-106228865D01*
X144613995Y-106457673D01*
X144582000Y-106534915D01*
X144550005Y-106457673D01*
X144397120Y-106228865D01*
X144202535Y-106034280D01*
X143973727Y-105881395D01*
X143719490Y-105776086D01*
X143449592Y-105722400D01*
X143174408Y-105722400D01*
X142904510Y-105776086D01*
X142650273Y-105881395D01*
X142421465Y-106034280D01*
X142226880Y-106228865D01*
X142073995Y-106457673D01*
X142042000Y-106534915D01*
X142010005Y-106457673D01*
X141857120Y-106228865D01*
X141662535Y-106034280D01*
X141433727Y-105881395D01*
X141179490Y-105776086D01*
X140909592Y-105722400D01*
X140634408Y-105722400D01*
X140364510Y-105776086D01*
X140110273Y-105881395D01*
X139881465Y-106034280D01*
X139686880Y-106228865D01*
X139533995Y-106457673D01*
X139502000Y-106534915D01*
X139470005Y-106457673D01*
X139317120Y-106228865D01*
X139122535Y-106034280D01*
X138893727Y-105881395D01*
X138639490Y-105776086D01*
X138369592Y-105722400D01*
X138094408Y-105722400D01*
X137824510Y-105776086D01*
X137570273Y-105881395D01*
X137341465Y-106034280D01*
X137146880Y-106228865D01*
X136993995Y-106457673D01*
X136962000Y-106534915D01*
X136930005Y-106457673D01*
X136777120Y-106228865D01*
X136582535Y-106034280D01*
X136353727Y-105881395D01*
X136099490Y-105776086D01*
X135829592Y-105722400D01*
X135554408Y-105722400D01*
X135284510Y-105776086D01*
X135030273Y-105881395D01*
X134801465Y-106034280D01*
X134606880Y-106228865D01*
X134453995Y-106457673D01*
X134422000Y-106534915D01*
X134390005Y-106457673D01*
X134237120Y-106228865D01*
X134135794Y-106127539D01*
X134149084Y-106111346D01*
X143603693Y-96656737D01*
X143625240Y-96708755D01*
X143743378Y-96885561D01*
X143893739Y-97035922D01*
X144070545Y-97154060D01*
X144267002Y-97235435D01*
X144475559Y-97276920D01*
X144688201Y-97276920D01*
X144896758Y-97235435D01*
X145093215Y-97154060D01*
X145270021Y-97035922D01*
X145420382Y-96885561D01*
X145538520Y-96708755D01*
X145619895Y-96512298D01*
X145661380Y-96303741D01*
X145661380Y-96195550D01*
X146426661Y-95430270D01*
X146617215Y-95351340D01*
X146794021Y-95233202D01*
X146944382Y-95082841D01*
X147062520Y-94906035D01*
X147143895Y-94709578D01*
X147185380Y-94501021D01*
X147185380Y-94288379D01*
X147143895Y-94079822D01*
X147062520Y-93883365D01*
X146944382Y-93706559D01*
X146794021Y-93556198D01*
X146740196Y-93520234D01*
X147562546Y-92697884D01*
X147566380Y-92694737D01*
X147566380Y-92747741D01*
G37*
X147566380Y-92747741D02*
X147607865Y-92956298D01*
X147689240Y-93152755D01*
X147807378Y-93329561D01*
X147883881Y-93406064D01*
X147883881Y-93873985D01*
X147883880Y-93873995D01*
X147883880Y-94127997D01*
X147880194Y-94165420D01*
X147883880Y-94202843D01*
X147883880Y-94202846D01*
X147894906Y-94314798D01*
X147938478Y-94458435D01*
X148009235Y-94590812D01*
X148104458Y-94706842D01*
X148133532Y-94730702D01*
X148328380Y-94925550D01*
X148328380Y-95033741D01*
X148369865Y-95242298D01*
X148451240Y-95438755D01*
X148569378Y-95615561D01*
X148719739Y-95765922D01*
X148896545Y-95884060D01*
X149093002Y-95965435D01*
X149301559Y-96006920D01*
X149514201Y-96006920D01*
X149722758Y-95965435D01*
X149919215Y-95884060D01*
X150096021Y-95765922D01*
X150170001Y-95691942D01*
X150170001Y-97172468D01*
X146546354Y-100796116D01*
X146517278Y-100819978D01*
X146473896Y-100872840D01*
X146422055Y-100936008D01*
X146396189Y-100984400D01*
X146351298Y-101068386D01*
X146307726Y-101212023D01*
X146297722Y-101313601D01*
X146293014Y-101361400D01*
X146296700Y-101398823D01*
X146296701Y-105791499D01*
X146259490Y-105776086D01*
X145989592Y-105722400D01*
X145714408Y-105722400D01*
X145444510Y-105776086D01*
X145190273Y-105881395D01*
X144961465Y-106034280D01*
X144766880Y-106228865D01*
X144613995Y-106457673D01*
X144582000Y-106534915D01*
X144550005Y-106457673D01*
X144397120Y-106228865D01*
X144202535Y-106034280D01*
X143973727Y-105881395D01*
X143719490Y-105776086D01*
X143449592Y-105722400D01*
X143174408Y-105722400D01*
X142904510Y-105776086D01*
X142650273Y-105881395D01*
X142421465Y-106034280D01*
X142226880Y-106228865D01*
X142073995Y-106457673D01*
X142042000Y-106534915D01*
X142010005Y-106457673D01*
X141857120Y-106228865D01*
X141662535Y-106034280D01*
X141433727Y-105881395D01*
X141179490Y-105776086D01*
X140909592Y-105722400D01*
X140634408Y-105722400D01*
X140364510Y-105776086D01*
X140110273Y-105881395D01*
X139881465Y-106034280D01*
X139686880Y-106228865D01*
X139533995Y-106457673D01*
X139502000Y-106534915D01*
X139470005Y-106457673D01*
X139317120Y-106228865D01*
X139122535Y-106034280D01*
X138893727Y-105881395D01*
X138639490Y-105776086D01*
X138369592Y-105722400D01*
X138094408Y-105722400D01*
X137824510Y-105776086D01*
X137570273Y-105881395D01*
X137341465Y-106034280D01*
X137146880Y-106228865D01*
X136993995Y-106457673D01*
X136962000Y-106534915D01*
X136930005Y-106457673D01*
X136777120Y-106228865D01*
X136582535Y-106034280D01*
X136353727Y-105881395D01*
X136099490Y-105776086D01*
X135829592Y-105722400D01*
X135554408Y-105722400D01*
X135284510Y-105776086D01*
X135030273Y-105881395D01*
X134801465Y-106034280D01*
X134606880Y-106228865D01*
X134453995Y-106457673D01*
X134422000Y-106534915D01*
X134390005Y-106457673D01*
X134237120Y-106228865D01*
X134135794Y-106127539D01*
X134149084Y-106111346D01*
X143603693Y-96656737D01*
X143625240Y-96708755D01*
X143743378Y-96885561D01*
X143893739Y-97035922D01*
X144070545Y-97154060D01*
X144267002Y-97235435D01*
X144475559Y-97276920D01*
X144688201Y-97276920D01*
X144896758Y-97235435D01*
X145093215Y-97154060D01*
X145270021Y-97035922D01*
X145420382Y-96885561D01*
X145538520Y-96708755D01*
X145619895Y-96512298D01*
X145661380Y-96303741D01*
X145661380Y-96195550D01*
X146426661Y-95430270D01*
X146617215Y-95351340D01*
X146794021Y-95233202D01*
X146944382Y-95082841D01*
X147062520Y-94906035D01*
X147143895Y-94709578D01*
X147185380Y-94501021D01*
X147185380Y-94288379D01*
X147143895Y-94079822D01*
X147062520Y-93883365D01*
X146944382Y-93706559D01*
X146794021Y-93556198D01*
X146740196Y-93520234D01*
X147562546Y-92697884D01*
X147566380Y-92694737D01*
X147566380Y-92747741D01*
G36*
X168554068Y-99066242D02*
G01*
X168497000Y-99353140D01*
X168497000Y-99645660D01*
X168554068Y-99932558D01*
X168585068Y-100007400D01*
X159859422Y-100007400D01*
X159821999Y-100003714D01*
X159784576Y-100007400D01*
X159784574Y-100007400D01*
X159672622Y-100018426D01*
X159528985Y-100061998D01*
X159396608Y-100132755D01*
X159280578Y-100227978D01*
X159256721Y-100257048D01*
X153761211Y-105752559D01*
X153609592Y-105722400D01*
X153406630Y-105722400D01*
X160176231Y-98952800D01*
X168601057Y-98952800D01*
X168554068Y-99066242D01*
G37*
X168554068Y-99066242D02*
X168497000Y-99353140D01*
X168497000Y-99645660D01*
X168554068Y-99932558D01*
X168585068Y-100007400D01*
X159859422Y-100007400D01*
X159821999Y-100003714D01*
X159784576Y-100007400D01*
X159784574Y-100007400D01*
X159672622Y-100018426D01*
X159528985Y-100061998D01*
X159396608Y-100132755D01*
X159280578Y-100227978D01*
X159256721Y-100257048D01*
X153761211Y-105752559D01*
X153609592Y-105722400D01*
X153406630Y-105722400D01*
X160176231Y-98952800D01*
X168601057Y-98952800D01*
X168554068Y-99066242D01*
G36*
X126019038Y-97552362D02*
G01*
X126106816Y-97624400D01*
X126019038Y-97696438D01*
X125908595Y-97831013D01*
X125826528Y-97984549D01*
X125775992Y-98151145D01*
X125758928Y-98324399D01*
X125758928Y-98698688D01*
X125752458Y-98703998D01*
X125713872Y-98751016D01*
X125657235Y-98820028D01*
X125636832Y-98858200D01*
X125586478Y-98952406D01*
X125542906Y-99096043D01*
X125531880Y-99207994D01*
X125528194Y-99245420D01*
X125531880Y-99282844D01*
X125531881Y-100876187D01*
X125528194Y-100913620D01*
X125542907Y-101062998D01*
X125586479Y-101206635D01*
X125657235Y-101339012D01*
X125712248Y-101406045D01*
X125752459Y-101455042D01*
X125781529Y-101478899D01*
X126217230Y-101914600D01*
X125683496Y-101914600D01*
X125693000Y-101866821D01*
X125693000Y-101654179D01*
X125651515Y-101445622D01*
X125570140Y-101249165D01*
X125452002Y-101072359D01*
X125301641Y-100921998D01*
X125124835Y-100803860D01*
X124964700Y-100737530D01*
X124964700Y-97588230D01*
X125085510Y-97467420D01*
X125949328Y-97467420D01*
X126019038Y-97552362D01*
G37*
X126019038Y-97552362D02*
X126106816Y-97624400D01*
X126019038Y-97696438D01*
X125908595Y-97831013D01*
X125826528Y-97984549D01*
X125775992Y-98151145D01*
X125758928Y-98324399D01*
X125758928Y-98698688D01*
X125752458Y-98703998D01*
X125713872Y-98751016D01*
X125657235Y-98820028D01*
X125636832Y-98858200D01*
X125586478Y-98952406D01*
X125542906Y-99096043D01*
X125531880Y-99207994D01*
X125528194Y-99245420D01*
X125531880Y-99282844D01*
X125531881Y-100876187D01*
X125528194Y-100913620D01*
X125542907Y-101062998D01*
X125586479Y-101206635D01*
X125657235Y-101339012D01*
X125712248Y-101406045D01*
X125752459Y-101455042D01*
X125781529Y-101478899D01*
X126217230Y-101914600D01*
X125683496Y-101914600D01*
X125693000Y-101866821D01*
X125693000Y-101654179D01*
X125651515Y-101445622D01*
X125570140Y-101249165D01*
X125452002Y-101072359D01*
X125301641Y-100921998D01*
X125124835Y-100803860D01*
X124964700Y-100737530D01*
X124964700Y-97588230D01*
X125085510Y-97467420D01*
X125949328Y-97467420D01*
X126019038Y-97552362D01*
G36*
X158258865Y-94872822D02*
G01*
X158402502Y-94916394D01*
X158514454Y-94927420D01*
X158514456Y-94927420D01*
X158551879Y-94931106D01*
X158589302Y-94927420D01*
X160469853Y-94927420D01*
X160326545Y-94986780D01*
X160149739Y-95104918D01*
X160073237Y-95181420D01*
X159557045Y-95181420D01*
X159519622Y-95177734D01*
X159482199Y-95181420D01*
X159482196Y-95181420D01*
X159370244Y-95192446D01*
X159226607Y-95236018D01*
X159173119Y-95264608D01*
X159094229Y-95306775D01*
X159061074Y-95333985D01*
X158978200Y-95401998D01*
X158954338Y-95431074D01*
X155330491Y-99054921D01*
X155186379Y-99054921D01*
X155186379Y-98608551D01*
X157280010Y-96514920D01*
X157388201Y-96514920D01*
X157596758Y-96473435D01*
X157793215Y-96392060D01*
X157970021Y-96273922D01*
X158120382Y-96123561D01*
X158238520Y-95946755D01*
X158319895Y-95750298D01*
X158361380Y-95541741D01*
X158361380Y-95329099D01*
X158319895Y-95120542D01*
X158238520Y-94924085D01*
X158173934Y-94827426D01*
X158258865Y-94872822D01*
G37*
X158258865Y-94872822D02*
X158402502Y-94916394D01*
X158514454Y-94927420D01*
X158514456Y-94927420D01*
X158551879Y-94931106D01*
X158589302Y-94927420D01*
X160469853Y-94927420D01*
X160326545Y-94986780D01*
X160149739Y-95104918D01*
X160073237Y-95181420D01*
X159557045Y-95181420D01*
X159519622Y-95177734D01*
X159482199Y-95181420D01*
X159482196Y-95181420D01*
X159370244Y-95192446D01*
X159226607Y-95236018D01*
X159173119Y-95264608D01*
X159094229Y-95306775D01*
X159061074Y-95333985D01*
X158978200Y-95401998D01*
X158954338Y-95431074D01*
X155330491Y-99054921D01*
X155186379Y-99054921D01*
X155186379Y-98608551D01*
X157280010Y-96514920D01*
X157388201Y-96514920D01*
X157596758Y-96473435D01*
X157793215Y-96392060D01*
X157970021Y-96273922D01*
X158120382Y-96123561D01*
X158238520Y-95946755D01*
X158319895Y-95750298D01*
X158361380Y-95541741D01*
X158361380Y-95329099D01*
X158319895Y-95120542D01*
X158238520Y-94924085D01*
X158173934Y-94827426D01*
X158258865Y-94872822D01*
G36*
X131808686Y-86391910D02*
G01*
X131755000Y-86661808D01*
X131755000Y-86936992D01*
X131808686Y-87206890D01*
X131913995Y-87461127D01*
X132066880Y-87689935D01*
X132261465Y-87884520D01*
X132490273Y-88037405D01*
X132744510Y-88142714D01*
X133014408Y-88196400D01*
X133289592Y-88196400D01*
X133559490Y-88142714D01*
X133813727Y-88037405D01*
X134042535Y-87884520D01*
X134237120Y-87689935D01*
X134390005Y-87461127D01*
X134422000Y-87383885D01*
X134453995Y-87461127D01*
X134606880Y-87689935D01*
X134801465Y-87884520D01*
X135030273Y-88037405D01*
X135284510Y-88142714D01*
X135554408Y-88196400D01*
X135631766Y-88196400D01*
X135610525Y-88266423D01*
X135599521Y-88378150D01*
X135595813Y-88415801D01*
X135599499Y-88453224D01*
X135599499Y-88598736D01*
X128929240Y-95268996D01*
X128900170Y-95292853D01*
X128876313Y-95321923D01*
X128876312Y-95321924D01*
X128804946Y-95408883D01*
X128734190Y-95541260D01*
X128690618Y-95684897D01*
X128675905Y-95834275D01*
X128679592Y-95871708D01*
X128679590Y-98824879D01*
X128667769Y-98836700D01*
X128559579Y-98836700D01*
X128435072Y-98861466D01*
X128435072Y-98324399D01*
X128418008Y-98151145D01*
X128367472Y-97984549D01*
X128285405Y-97831013D01*
X128174962Y-97696438D01*
X128087184Y-97624400D01*
X128174962Y-97552362D01*
X128285405Y-97417787D01*
X128367472Y-97264251D01*
X128418008Y-97097655D01*
X128435072Y-96924401D01*
X128435072Y-96274399D01*
X128418008Y-96101145D01*
X128367472Y-95934549D01*
X128285405Y-95781013D01*
X128174962Y-95646438D01*
X128040387Y-95535995D01*
X127886851Y-95453928D01*
X127720255Y-95403392D01*
X127547001Y-95386328D01*
X126646999Y-95386328D01*
X126473745Y-95403392D01*
X126307149Y-95453928D01*
X126153613Y-95535995D01*
X126019038Y-95646438D01*
X125908595Y-95781013D01*
X125826528Y-95934549D01*
X125823837Y-95943420D01*
X124807303Y-95943420D01*
X124769880Y-95939734D01*
X124732457Y-95943420D01*
X124732454Y-95943420D01*
X124620502Y-95954446D01*
X124476865Y-95998018D01*
X124449270Y-96012768D01*
X124344487Y-96068775D01*
X124308390Y-96098400D01*
X124228458Y-96163998D01*
X124204596Y-96193074D01*
X124116600Y-96281070D01*
X124116600Y-95907430D01*
X125762577Y-94261453D01*
X125775992Y-94397655D01*
X125826528Y-94564251D01*
X125908595Y-94717787D01*
X126019038Y-94852362D01*
X126153613Y-94962805D01*
X126307149Y-95044872D01*
X126473745Y-95095408D01*
X126646999Y-95112472D01*
X127547001Y-95112472D01*
X127720255Y-95095408D01*
X127886851Y-95044872D01*
X128040387Y-94962805D01*
X128174962Y-94852362D01*
X128285405Y-94717787D01*
X128367472Y-94564251D01*
X128418008Y-94397655D01*
X128418962Y-94387968D01*
X129387445Y-93419485D01*
X129416521Y-93395623D01*
X129487588Y-93309027D01*
X129511744Y-93279594D01*
X129556751Y-93195390D01*
X129582501Y-93147216D01*
X129626073Y-93003579D01*
X129637099Y-92891627D01*
X129637099Y-92891624D01*
X129640785Y-92854201D01*
X129637099Y-92816778D01*
X129637099Y-91564563D01*
X129713601Y-91488061D01*
X129831739Y-91311255D01*
X129913114Y-91114798D01*
X129954599Y-90906241D01*
X129954599Y-90693599D01*
X129913114Y-90485042D01*
X129831739Y-90288585D01*
X129713601Y-90111779D01*
X129563240Y-89961418D01*
X129386434Y-89843280D01*
X129189977Y-89761905D01*
X128981420Y-89720420D01*
X128829667Y-89720420D01*
X128822854Y-89651244D01*
X128791913Y-89549245D01*
X128851841Y-89509202D01*
X129002202Y-89358841D01*
X129120340Y-89182035D01*
X129201715Y-88985578D01*
X129243200Y-88777021D01*
X129243200Y-88564379D01*
X129201715Y-88355822D01*
X129120340Y-88159365D01*
X129002202Y-87982559D01*
X128925700Y-87906057D01*
X128925700Y-87434730D01*
X129250331Y-87110100D01*
X129358521Y-87110100D01*
X129567078Y-87068615D01*
X129763535Y-86987240D01*
X129940341Y-86869102D01*
X130090702Y-86718741D01*
X130208840Y-86541935D01*
X130290215Y-86345478D01*
X130326154Y-86164800D01*
X131902759Y-86164800D01*
X131808686Y-86391910D01*
G37*
X131808686Y-86391910D02*
X131755000Y-86661808D01*
X131755000Y-86936992D01*
X131808686Y-87206890D01*
X131913995Y-87461127D01*
X132066880Y-87689935D01*
X132261465Y-87884520D01*
X132490273Y-88037405D01*
X132744510Y-88142714D01*
X133014408Y-88196400D01*
X133289592Y-88196400D01*
X133559490Y-88142714D01*
X133813727Y-88037405D01*
X134042535Y-87884520D01*
X134237120Y-87689935D01*
X134390005Y-87461127D01*
X134422000Y-87383885D01*
X134453995Y-87461127D01*
X134606880Y-87689935D01*
X134801465Y-87884520D01*
X135030273Y-88037405D01*
X135284510Y-88142714D01*
X135554408Y-88196400D01*
X135631766Y-88196400D01*
X135610525Y-88266423D01*
X135599521Y-88378150D01*
X135595813Y-88415801D01*
X135599499Y-88453224D01*
X135599499Y-88598736D01*
X128929240Y-95268996D01*
X128900170Y-95292853D01*
X128876313Y-95321923D01*
X128876312Y-95321924D01*
X128804946Y-95408883D01*
X128734190Y-95541260D01*
X128690618Y-95684897D01*
X128675905Y-95834275D01*
X128679592Y-95871708D01*
X128679590Y-98824879D01*
X128667769Y-98836700D01*
X128559579Y-98836700D01*
X128435072Y-98861466D01*
X128435072Y-98324399D01*
X128418008Y-98151145D01*
X128367472Y-97984549D01*
X128285405Y-97831013D01*
X128174962Y-97696438D01*
X128087184Y-97624400D01*
X128174962Y-97552362D01*
X128285405Y-97417787D01*
X128367472Y-97264251D01*
X128418008Y-97097655D01*
X128435072Y-96924401D01*
X128435072Y-96274399D01*
X128418008Y-96101145D01*
X128367472Y-95934549D01*
X128285405Y-95781013D01*
X128174962Y-95646438D01*
X128040387Y-95535995D01*
X127886851Y-95453928D01*
X127720255Y-95403392D01*
X127547001Y-95386328D01*
X126646999Y-95386328D01*
X126473745Y-95403392D01*
X126307149Y-95453928D01*
X126153613Y-95535995D01*
X126019038Y-95646438D01*
X125908595Y-95781013D01*
X125826528Y-95934549D01*
X125823837Y-95943420D01*
X124807303Y-95943420D01*
X124769880Y-95939734D01*
X124732457Y-95943420D01*
X124732454Y-95943420D01*
X124620502Y-95954446D01*
X124476865Y-95998018D01*
X124449270Y-96012768D01*
X124344487Y-96068775D01*
X124308390Y-96098400D01*
X124228458Y-96163998D01*
X124204596Y-96193074D01*
X124116600Y-96281070D01*
X124116600Y-95907430D01*
X125762577Y-94261453D01*
X125775992Y-94397655D01*
X125826528Y-94564251D01*
X125908595Y-94717787D01*
X126019038Y-94852362D01*
X126153613Y-94962805D01*
X126307149Y-95044872D01*
X126473745Y-95095408D01*
X126646999Y-95112472D01*
X127547001Y-95112472D01*
X127720255Y-95095408D01*
X127886851Y-95044872D01*
X128040387Y-94962805D01*
X128174962Y-94852362D01*
X128285405Y-94717787D01*
X128367472Y-94564251D01*
X128418008Y-94397655D01*
X128418962Y-94387968D01*
X129387445Y-93419485D01*
X129416521Y-93395623D01*
X129487588Y-93309027D01*
X129511744Y-93279594D01*
X129556751Y-93195390D01*
X129582501Y-93147216D01*
X129626073Y-93003579D01*
X129637099Y-92891627D01*
X129637099Y-92891624D01*
X129640785Y-92854201D01*
X129637099Y-92816778D01*
X129637099Y-91564563D01*
X129713601Y-91488061D01*
X129831739Y-91311255D01*
X129913114Y-91114798D01*
X129954599Y-90906241D01*
X129954599Y-90693599D01*
X129913114Y-90485042D01*
X129831739Y-90288585D01*
X129713601Y-90111779D01*
X129563240Y-89961418D01*
X129386434Y-89843280D01*
X129189977Y-89761905D01*
X128981420Y-89720420D01*
X128829667Y-89720420D01*
X128822854Y-89651244D01*
X128791913Y-89549245D01*
X128851841Y-89509202D01*
X129002202Y-89358841D01*
X129120340Y-89182035D01*
X129201715Y-88985578D01*
X129243200Y-88777021D01*
X129243200Y-88564379D01*
X129201715Y-88355822D01*
X129120340Y-88159365D01*
X129002202Y-87982559D01*
X128925700Y-87906057D01*
X128925700Y-87434730D01*
X129250331Y-87110100D01*
X129358521Y-87110100D01*
X129567078Y-87068615D01*
X129763535Y-86987240D01*
X129940341Y-86869102D01*
X130090702Y-86718741D01*
X130208840Y-86541935D01*
X130290215Y-86345478D01*
X130326154Y-86164800D01*
X131902759Y-86164800D01*
X131808686Y-86391910D01*
G36*
X136916201Y-91745056D02*
G01*
X136839698Y-91821559D01*
X136721560Y-91998365D01*
X136640185Y-92194822D01*
X136598700Y-92403379D01*
X136598700Y-92616021D01*
X136640185Y-92824578D01*
X136721560Y-93021035D01*
X136839698Y-93197841D01*
X136877163Y-93235306D01*
X131686770Y-98425700D01*
X131627880Y-98425700D01*
X131627880Y-96793316D01*
X136916201Y-91504996D01*
X136916201Y-91745056D01*
G37*
X136916201Y-91745056D02*
X136839698Y-91821559D01*
X136721560Y-91998365D01*
X136640185Y-92194822D01*
X136598700Y-92403379D01*
X136598700Y-92616021D01*
X136640185Y-92824578D01*
X136721560Y-93021035D01*
X136839698Y-93197841D01*
X136877163Y-93235306D01*
X131686770Y-98425700D01*
X131627880Y-98425700D01*
X131627880Y-96793316D01*
X136916201Y-91504996D01*
X136916201Y-91745056D01*
G36*
X168497000Y-94565660D02*
G01*
X168554068Y-94852558D01*
X168666010Y-95122811D01*
X168828525Y-95366032D01*
X169035368Y-95572875D01*
X169209760Y-95689400D01*
X169035368Y-95805925D01*
X168828525Y-96012768D01*
X168705158Y-96197400D01*
X161888008Y-96197400D01*
X161917380Y-96049741D01*
X161917380Y-95837099D01*
X161875895Y-95628542D01*
X161794520Y-95432085D01*
X161676382Y-95255279D01*
X161526021Y-95104918D01*
X161349215Y-94986780D01*
X161205907Y-94927420D01*
X163896715Y-94927420D01*
X163934138Y-94931106D01*
X163971561Y-94927420D01*
X163971564Y-94927420D01*
X164083516Y-94916394D01*
X164227153Y-94872822D01*
X164359530Y-94802065D01*
X164475560Y-94706842D01*
X164499422Y-94677766D01*
X164567269Y-94609919D01*
X168023758Y-94609919D01*
X168061181Y-94613605D01*
X168098604Y-94609919D01*
X168098607Y-94609919D01*
X168210559Y-94598893D01*
X168354196Y-94555321D01*
X168486573Y-94484564D01*
X168497000Y-94476007D01*
X168497000Y-94565660D01*
G37*
X168497000Y-94565660D02*
X168554068Y-94852558D01*
X168666010Y-95122811D01*
X168828525Y-95366032D01*
X169035368Y-95572875D01*
X169209760Y-95689400D01*
X169035368Y-95805925D01*
X168828525Y-96012768D01*
X168705158Y-96197400D01*
X161888008Y-96197400D01*
X161917380Y-96049741D01*
X161917380Y-95837099D01*
X161875895Y-95628542D01*
X161794520Y-95432085D01*
X161676382Y-95255279D01*
X161526021Y-95104918D01*
X161349215Y-94986780D01*
X161205907Y-94927420D01*
X163896715Y-94927420D01*
X163934138Y-94931106D01*
X163971561Y-94927420D01*
X163971564Y-94927420D01*
X164083516Y-94916394D01*
X164227153Y-94872822D01*
X164359530Y-94802065D01*
X164475560Y-94706842D01*
X164499422Y-94677766D01*
X164567269Y-94609919D01*
X168023758Y-94609919D01*
X168061181Y-94613605D01*
X168098604Y-94609919D01*
X168098607Y-94609919D01*
X168210559Y-94598893D01*
X168354196Y-94555321D01*
X168486573Y-94484564D01*
X168497000Y-94476007D01*
X168497000Y-94565660D01*
G36*
X117043628Y-86926416D02*
G01*
X116861731Y-87365554D01*
X116769000Y-87831740D01*
X116769000Y-88307060D01*
X116861731Y-88773246D01*
X117043628Y-89212384D01*
X117307701Y-89607598D01*
X117643802Y-89943699D01*
X118039016Y-90207772D01*
X118478154Y-90389669D01*
X118629784Y-90419830D01*
X118617426Y-90481960D01*
X118617426Y-90590151D01*
X118381235Y-90826342D01*
X118188547Y-90826342D01*
X117979990Y-90867827D01*
X117783533Y-90949202D01*
X117606727Y-91067340D01*
X117456366Y-91217701D01*
X117338228Y-91394507D01*
X117256853Y-91590964D01*
X117215368Y-91799521D01*
X117215368Y-92012163D01*
X117256853Y-92220720D01*
X117338228Y-92417177D01*
X117456366Y-92593983D01*
X117547859Y-92685476D01*
X117059016Y-93174319D01*
X116991578Y-93146385D01*
X116783021Y-93104900D01*
X116570379Y-93104900D01*
X116361822Y-93146385D01*
X116165365Y-93227760D01*
X115988559Y-93345898D01*
X115838198Y-93496259D01*
X115720060Y-93673065D01*
X115638685Y-93869522D01*
X115597200Y-94078079D01*
X115597200Y-94290721D01*
X115638685Y-94499278D01*
X115720060Y-94695735D01*
X115838198Y-94872541D01*
X115914700Y-94949043D01*
X115914700Y-95300369D01*
X115228888Y-95986181D01*
X115048632Y-95805925D01*
X114874240Y-95689400D01*
X115048632Y-95572875D01*
X115255475Y-95366032D01*
X115417990Y-95122811D01*
X115529932Y-94852558D01*
X115587000Y-94565660D01*
X115587000Y-94273140D01*
X115529932Y-93986242D01*
X115417990Y-93715989D01*
X115296045Y-93533485D01*
X115845653Y-92983878D01*
X115874722Y-92960022D01*
X115969945Y-92843992D01*
X116034078Y-92724008D01*
X116040701Y-92711617D01*
X116043196Y-92703392D01*
X116084274Y-92567978D01*
X116095300Y-92456026D01*
X116095300Y-92456024D01*
X116098986Y-92418601D01*
X116095300Y-92381178D01*
X116095300Y-86899630D01*
X116449511Y-86545420D01*
X117298201Y-86545420D01*
X117043628Y-86926416D01*
G37*
X117043628Y-86926416D02*
X116861731Y-87365554D01*
X116769000Y-87831740D01*
X116769000Y-88307060D01*
X116861731Y-88773246D01*
X117043628Y-89212384D01*
X117307701Y-89607598D01*
X117643802Y-89943699D01*
X118039016Y-90207772D01*
X118478154Y-90389669D01*
X118629784Y-90419830D01*
X118617426Y-90481960D01*
X118617426Y-90590151D01*
X118381235Y-90826342D01*
X118188547Y-90826342D01*
X117979990Y-90867827D01*
X117783533Y-90949202D01*
X117606727Y-91067340D01*
X117456366Y-91217701D01*
X117338228Y-91394507D01*
X117256853Y-91590964D01*
X117215368Y-91799521D01*
X117215368Y-92012163D01*
X117256853Y-92220720D01*
X117338228Y-92417177D01*
X117456366Y-92593983D01*
X117547859Y-92685476D01*
X117059016Y-93174319D01*
X116991578Y-93146385D01*
X116783021Y-93104900D01*
X116570379Y-93104900D01*
X116361822Y-93146385D01*
X116165365Y-93227760D01*
X115988559Y-93345898D01*
X115838198Y-93496259D01*
X115720060Y-93673065D01*
X115638685Y-93869522D01*
X115597200Y-94078079D01*
X115597200Y-94290721D01*
X115638685Y-94499278D01*
X115720060Y-94695735D01*
X115838198Y-94872541D01*
X115914700Y-94949043D01*
X115914700Y-95300369D01*
X115228888Y-95986181D01*
X115048632Y-95805925D01*
X114874240Y-95689400D01*
X115048632Y-95572875D01*
X115255475Y-95366032D01*
X115417990Y-95122811D01*
X115529932Y-94852558D01*
X115587000Y-94565660D01*
X115587000Y-94273140D01*
X115529932Y-93986242D01*
X115417990Y-93715989D01*
X115296045Y-93533485D01*
X115845653Y-92983878D01*
X115874722Y-92960022D01*
X115969945Y-92843992D01*
X116034078Y-92724008D01*
X116040701Y-92711617D01*
X116043196Y-92703392D01*
X116084274Y-92567978D01*
X116095300Y-92456026D01*
X116095300Y-92456024D01*
X116098986Y-92418601D01*
X116095300Y-92381178D01*
X116095300Y-86899630D01*
X116449511Y-86545420D01*
X117298201Y-86545420D01*
X117043628Y-86926416D01*
G36*
X154773995Y-87461127D02*
G01*
X154926880Y-87689935D01*
X155121465Y-87884520D01*
X155350273Y-88037405D01*
X155604510Y-88142714D01*
X155874408Y-88196400D01*
X156149592Y-88196400D01*
X156301211Y-88166241D01*
X159506389Y-91371420D01*
X156459023Y-91371420D01*
X156382521Y-91294918D01*
X156205715Y-91176780D01*
X156009258Y-91095405D01*
X155800701Y-91053920D01*
X155588059Y-91053920D01*
X155379502Y-91095405D01*
X155183045Y-91176780D01*
X155006239Y-91294918D01*
X154855878Y-91445279D01*
X154737740Y-91622085D01*
X154656365Y-91818542D01*
X154614880Y-92027099D01*
X154614880Y-92239741D01*
X154656365Y-92448298D01*
X154737740Y-92644755D01*
X154855878Y-92821561D01*
X155006239Y-92971922D01*
X155183045Y-93090060D01*
X155379502Y-93171435D01*
X155588059Y-93212920D01*
X155800701Y-93212920D01*
X155950309Y-93183161D01*
X154296870Y-94836600D01*
X154219100Y-94836600D01*
X154219100Y-87980360D01*
X154362535Y-87884520D01*
X154557120Y-87689935D01*
X154710005Y-87461127D01*
X154742000Y-87383885D01*
X154773995Y-87461127D01*
G37*
X154773995Y-87461127D02*
X154926880Y-87689935D01*
X155121465Y-87884520D01*
X155350273Y-88037405D01*
X155604510Y-88142714D01*
X155874408Y-88196400D01*
X156149592Y-88196400D01*
X156301211Y-88166241D01*
X159506389Y-91371420D01*
X156459023Y-91371420D01*
X156382521Y-91294918D01*
X156205715Y-91176780D01*
X156009258Y-91095405D01*
X155800701Y-91053920D01*
X155588059Y-91053920D01*
X155379502Y-91095405D01*
X155183045Y-91176780D01*
X155006239Y-91294918D01*
X154855878Y-91445279D01*
X154737740Y-91622085D01*
X154656365Y-91818542D01*
X154614880Y-92027099D01*
X154614880Y-92239741D01*
X154656365Y-92448298D01*
X154737740Y-92644755D01*
X154855878Y-92821561D01*
X155006239Y-92971922D01*
X155183045Y-93090060D01*
X155379502Y-93171435D01*
X155588059Y-93212920D01*
X155800701Y-93212920D01*
X155950309Y-93183161D01*
X154296870Y-94836600D01*
X154219100Y-94836600D01*
X154219100Y-87980360D01*
X154362535Y-87884520D01*
X154557120Y-87689935D01*
X154710005Y-87461127D01*
X154742000Y-87383885D01*
X154773995Y-87461127D01*
G36*
X149693995Y-87461127D02*
G01*
X149846880Y-87689935D01*
X150041465Y-87884520D01*
X150170000Y-87970405D01*
X150170001Y-94162898D01*
X150096021Y-94088918D01*
X149919215Y-93970780D01*
X149722758Y-93889405D01*
X149514201Y-93847920D01*
X149407880Y-93847920D01*
X149407880Y-93406063D01*
X149484382Y-93329561D01*
X149602520Y-93152755D01*
X149683895Y-92956298D01*
X149725380Y-92747741D01*
X149725380Y-92535099D01*
X149683895Y-92326542D01*
X149602520Y-92130085D01*
X149484382Y-91953279D01*
X149334021Y-91802918D01*
X149157215Y-91684780D01*
X148960758Y-91603405D01*
X148752201Y-91561920D01*
X148539559Y-91561920D01*
X148331002Y-91603405D01*
X148134545Y-91684780D01*
X147957739Y-91802918D01*
X147812200Y-91948457D01*
X147812200Y-88071340D01*
X147984510Y-88142714D01*
X148254408Y-88196400D01*
X148529592Y-88196400D01*
X148799490Y-88142714D01*
X149053727Y-88037405D01*
X149282535Y-87884520D01*
X149477120Y-87689935D01*
X149630005Y-87461127D01*
X149662000Y-87383885D01*
X149693995Y-87461127D01*
G37*
X149693995Y-87461127D02*
X149846880Y-87689935D01*
X150041465Y-87884520D01*
X150170000Y-87970405D01*
X150170001Y-94162898D01*
X150096021Y-94088918D01*
X149919215Y-93970780D01*
X149722758Y-93889405D01*
X149514201Y-93847920D01*
X149407880Y-93847920D01*
X149407880Y-93406063D01*
X149484382Y-93329561D01*
X149602520Y-93152755D01*
X149683895Y-92956298D01*
X149725380Y-92747741D01*
X149725380Y-92535099D01*
X149683895Y-92326542D01*
X149602520Y-92130085D01*
X149484382Y-91953279D01*
X149334021Y-91802918D01*
X149157215Y-91684780D01*
X148960758Y-91603405D01*
X148752201Y-91561920D01*
X148539559Y-91561920D01*
X148331002Y-91603405D01*
X148134545Y-91684780D01*
X147957739Y-91802918D01*
X147812200Y-91948457D01*
X147812200Y-88071340D01*
X147984510Y-88142714D01*
X148254408Y-88196400D01*
X148529592Y-88196400D01*
X148799490Y-88142714D01*
X149053727Y-88037405D01*
X149282535Y-87884520D01*
X149477120Y-87689935D01*
X149630005Y-87461127D01*
X149662000Y-87383885D01*
X149693995Y-87461127D01*
G36*
X159853995Y-87461127D02*
G01*
X160006880Y-87689935D01*
X160201465Y-87884520D01*
X160430273Y-88037405D01*
X160684510Y-88142714D01*
X160858491Y-88177321D01*
X163841520Y-91160351D01*
X163865378Y-91189422D01*
X163981408Y-91284645D01*
X164113785Y-91355402D01*
X164257422Y-91398974D01*
X164369374Y-91410000D01*
X164369376Y-91410000D01*
X164406799Y-91413686D01*
X164444222Y-91410000D01*
X168569080Y-91410000D01*
X168554068Y-91446242D01*
X168497000Y-91733140D01*
X168497000Y-92025660D01*
X168511417Y-92098138D01*
X168444822Y-92111385D01*
X168248365Y-92192760D01*
X168071559Y-92310898D01*
X167921198Y-92461259D01*
X167803060Y-92638065D01*
X167721685Y-92834522D01*
X167680200Y-93043079D01*
X167680200Y-93085919D01*
X164289061Y-93085919D01*
X164251638Y-93082233D01*
X164214215Y-93085919D01*
X164214213Y-93085919D01*
X164186085Y-93088689D01*
X164203380Y-93001741D01*
X164203380Y-92789099D01*
X164161895Y-92580542D01*
X164080520Y-92384085D01*
X163962382Y-92207279D01*
X163812021Y-92056918D01*
X163635215Y-91938780D01*
X163438758Y-91857405D01*
X163230201Y-91815920D01*
X163017559Y-91815920D01*
X162809002Y-91857405D01*
X162612545Y-91938780D01*
X162435739Y-92056918D01*
X162425380Y-92067277D01*
X162425380Y-92027099D01*
X162383895Y-91818542D01*
X162302520Y-91622085D01*
X162184382Y-91445279D01*
X162034021Y-91294918D01*
X161857215Y-91176780D01*
X161660758Y-91095405D01*
X161452201Y-91053920D01*
X161344151Y-91053920D01*
X158486630Y-88196400D01*
X158689592Y-88196400D01*
X158959490Y-88142714D01*
X159213727Y-88037405D01*
X159442535Y-87884520D01*
X159637120Y-87689935D01*
X159790005Y-87461127D01*
X159822000Y-87383885D01*
X159853995Y-87461127D01*
G37*
X159853995Y-87461127D02*
X160006880Y-87689935D01*
X160201465Y-87884520D01*
X160430273Y-88037405D01*
X160684510Y-88142714D01*
X160858491Y-88177321D01*
X163841520Y-91160351D01*
X163865378Y-91189422D01*
X163981408Y-91284645D01*
X164113785Y-91355402D01*
X164257422Y-91398974D01*
X164369374Y-91410000D01*
X164369376Y-91410000D01*
X164406799Y-91413686D01*
X164444222Y-91410000D01*
X168569080Y-91410000D01*
X168554068Y-91446242D01*
X168497000Y-91733140D01*
X168497000Y-92025660D01*
X168511417Y-92098138D01*
X168444822Y-92111385D01*
X168248365Y-92192760D01*
X168071559Y-92310898D01*
X167921198Y-92461259D01*
X167803060Y-92638065D01*
X167721685Y-92834522D01*
X167680200Y-93043079D01*
X167680200Y-93085919D01*
X164289061Y-93085919D01*
X164251638Y-93082233D01*
X164214215Y-93085919D01*
X164214213Y-93085919D01*
X164186085Y-93088689D01*
X164203380Y-93001741D01*
X164203380Y-92789099D01*
X164161895Y-92580542D01*
X164080520Y-92384085D01*
X163962382Y-92207279D01*
X163812021Y-92056918D01*
X163635215Y-91938780D01*
X163438758Y-91857405D01*
X163230201Y-91815920D01*
X163017559Y-91815920D01*
X162809002Y-91857405D01*
X162612545Y-91938780D01*
X162435739Y-92056918D01*
X162425380Y-92067277D01*
X162425380Y-92027099D01*
X162383895Y-91818542D01*
X162302520Y-91622085D01*
X162184382Y-91445279D01*
X162034021Y-91294918D01*
X161857215Y-91176780D01*
X161660758Y-91095405D01*
X161452201Y-91053920D01*
X161344151Y-91053920D01*
X158486630Y-88196400D01*
X158689592Y-88196400D01*
X158959490Y-88142714D01*
X159213727Y-88037405D01*
X159442535Y-87884520D01*
X159637120Y-87689935D01*
X159790005Y-87461127D01*
X159822000Y-87383885D01*
X159853995Y-87461127D01*
G36*
X114229000Y-91752400D02*
G01*
X114249000Y-91752400D01*
X114249000Y-92006400D01*
X114229000Y-92006400D01*
X114229000Y-92026400D01*
X113975000Y-92026400D01*
X113975000Y-92006400D01*
X113955000Y-92006400D01*
X113955000Y-91752400D01*
X113975000Y-91752400D01*
X113975000Y-91732400D01*
X114229000Y-91732400D01*
X114229000Y-91752400D01*
G37*
X114229000Y-91752400D02*
X114249000Y-91752400D01*
X114249000Y-92006400D01*
X114229000Y-92006400D01*
X114229000Y-92026400D01*
X113975000Y-92026400D01*
X113975000Y-92006400D01*
X113955000Y-92006400D01*
X113955000Y-91752400D01*
X113975000Y-91752400D01*
X113975000Y-91732400D01*
X114229000Y-91732400D01*
X114229000Y-91752400D01*
G36*
X172649000Y-91752400D02*
G01*
X172669000Y-91752400D01*
X172669000Y-92006400D01*
X172649000Y-92006400D01*
X172649000Y-92026400D01*
X172395000Y-92026400D01*
X172395000Y-92006400D01*
X172375000Y-92006400D01*
X172375000Y-91752400D01*
X172395000Y-91752400D01*
X172395000Y-91732400D01*
X172649000Y-91732400D01*
X172649000Y-91752400D01*
G37*
X172649000Y-91752400D02*
X172669000Y-91752400D01*
X172669000Y-92006400D01*
X172649000Y-92006400D01*
X172649000Y-92026400D01*
X172395000Y-92026400D01*
X172395000Y-92006400D01*
X172375000Y-92006400D01*
X172375000Y-91752400D01*
X172395000Y-91752400D01*
X172395000Y-91732400D01*
X172649000Y-91732400D01*
X172649000Y-91752400D01*
G36*
X171944134Y-80256953D02*
G01*
X172371355Y-80385938D01*
X172765384Y-80595446D01*
X173111214Y-80877499D01*
X173395673Y-81221351D01*
X173607929Y-81613910D01*
X173739892Y-82040213D01*
X173790000Y-82516964D01*
X173790000Y-88010981D01*
X173726494Y-87958863D01*
X173616180Y-87899898D01*
X173496482Y-87863588D01*
X173372000Y-87851328D01*
X171672000Y-87851328D01*
X171547518Y-87863588D01*
X171427820Y-87899898D01*
X171317506Y-87958863D01*
X171220815Y-88038215D01*
X171141463Y-88134906D01*
X171082498Y-88245220D01*
X171060487Y-88317780D01*
X170928632Y-88185925D01*
X170685411Y-88023410D01*
X170415158Y-87911468D01*
X170128260Y-87854400D01*
X169835740Y-87854400D01*
X169548842Y-87911468D01*
X169278589Y-88023410D01*
X169125099Y-88125969D01*
X166592084Y-85592954D01*
X166775023Y-85527036D01*
X166890980Y-85465056D01*
X166957960Y-85224965D01*
X166172000Y-84439005D01*
X166157858Y-84453148D01*
X165978253Y-84273543D01*
X165992395Y-84259400D01*
X166351605Y-84259400D01*
X167137565Y-85045360D01*
X167377656Y-84978380D01*
X167494756Y-84729352D01*
X167561023Y-84462265D01*
X167573910Y-84187383D01*
X167532922Y-83915267D01*
X167439636Y-83656377D01*
X167377656Y-83540420D01*
X167137565Y-83473440D01*
X166351605Y-84259400D01*
X165992395Y-84259400D01*
X165206435Y-83473440D01*
X164966344Y-83540420D01*
X164902515Y-83676160D01*
X164870005Y-83597673D01*
X164717120Y-83368865D01*
X164522535Y-83174280D01*
X164293727Y-83021395D01*
X164216485Y-82989400D01*
X164293727Y-82957405D01*
X164522535Y-82804520D01*
X164717120Y-82609935D01*
X164870005Y-82381127D01*
X164902000Y-82303885D01*
X164933995Y-82381127D01*
X165086880Y-82609935D01*
X165281465Y-82804520D01*
X165510273Y-82957405D01*
X165581943Y-82987092D01*
X165568977Y-82991764D01*
X165453020Y-83053744D01*
X165386040Y-83293835D01*
X166172000Y-84079795D01*
X166957960Y-83293835D01*
X166890980Y-83053744D01*
X166755240Y-82989915D01*
X166833727Y-82957405D01*
X167062535Y-82804520D01*
X167257120Y-82609935D01*
X167410005Y-82381127D01*
X167515314Y-82126890D01*
X167569000Y-81856992D01*
X167569000Y-81581808D01*
X167515314Y-81311910D01*
X167410005Y-81057673D01*
X167257120Y-80828865D01*
X167062535Y-80634280D01*
X166833727Y-80481395D01*
X166579490Y-80376086D01*
X166309592Y-80322400D01*
X166034408Y-80322400D01*
X165764510Y-80376086D01*
X165510273Y-80481395D01*
X165281465Y-80634280D01*
X165086880Y-80828865D01*
X164933995Y-81057673D01*
X164902000Y-81134915D01*
X164870005Y-81057673D01*
X164717120Y-80828865D01*
X164522535Y-80634280D01*
X164293727Y-80481395D01*
X164039490Y-80376086D01*
X163769592Y-80322400D01*
X163494408Y-80322400D01*
X163224510Y-80376086D01*
X162970273Y-80481395D01*
X162741465Y-80634280D01*
X162546880Y-80828865D01*
X162393995Y-81057673D01*
X162362000Y-81134915D01*
X162330005Y-81057673D01*
X162177120Y-80828865D01*
X161982535Y-80634280D01*
X161753727Y-80481395D01*
X161499490Y-80376086D01*
X161229592Y-80322400D01*
X160954408Y-80322400D01*
X160684510Y-80376086D01*
X160430273Y-80481395D01*
X160201465Y-80634280D01*
X160006880Y-80828865D01*
X159853995Y-81057673D01*
X159824308Y-81129343D01*
X159819636Y-81116377D01*
X159757656Y-81000420D01*
X159517565Y-80933440D01*
X158731605Y-81719400D01*
X158745748Y-81733543D01*
X158566143Y-81913148D01*
X158552000Y-81899005D01*
X158537858Y-81913148D01*
X158358253Y-81733543D01*
X158372395Y-81719400D01*
X157586435Y-80933440D01*
X157346344Y-81000420D01*
X157282515Y-81136160D01*
X157250005Y-81057673D01*
X157097120Y-80828865D01*
X157022090Y-80753835D01*
X157766040Y-80753835D01*
X158552000Y-81539795D01*
X159337960Y-80753835D01*
X159270980Y-80513744D01*
X159021952Y-80396644D01*
X158754865Y-80330377D01*
X158479983Y-80317490D01*
X158207867Y-80358478D01*
X157948977Y-80451764D01*
X157833020Y-80513744D01*
X157766040Y-80753835D01*
X157022090Y-80753835D01*
X156902535Y-80634280D01*
X156673727Y-80481395D01*
X156419490Y-80376086D01*
X156149592Y-80322400D01*
X155874408Y-80322400D01*
X155604510Y-80376086D01*
X155350273Y-80481395D01*
X155121465Y-80634280D01*
X154926880Y-80828865D01*
X154773995Y-81057673D01*
X154744308Y-81129343D01*
X154739636Y-81116377D01*
X154677656Y-81000420D01*
X154437565Y-80933440D01*
X153651605Y-81719400D01*
X153665748Y-81733543D01*
X153486143Y-81913148D01*
X153472000Y-81899005D01*
X153457858Y-81913148D01*
X153278253Y-81733543D01*
X153292395Y-81719400D01*
X153278253Y-81705258D01*
X153457858Y-81525653D01*
X153472000Y-81539795D01*
X154257960Y-80753835D01*
X154190980Y-80513744D01*
X153941952Y-80396644D01*
X153674865Y-80330377D01*
X153399983Y-80317490D01*
X153127867Y-80358478D01*
X152868977Y-80451764D01*
X152753020Y-80513744D01*
X152686041Y-80753833D01*
X152569631Y-80637423D01*
X152557092Y-80649962D01*
X152117130Y-80210000D01*
X171465279Y-80210000D01*
X171944134Y-80256953D01*
G37*
X171944134Y-80256953D02*
X172371355Y-80385938D01*
X172765384Y-80595446D01*
X173111214Y-80877499D01*
X173395673Y-81221351D01*
X173607929Y-81613910D01*
X173739892Y-82040213D01*
X173790000Y-82516964D01*
X173790000Y-88010981D01*
X173726494Y-87958863D01*
X173616180Y-87899898D01*
X173496482Y-87863588D01*
X173372000Y-87851328D01*
X171672000Y-87851328D01*
X171547518Y-87863588D01*
X171427820Y-87899898D01*
X171317506Y-87958863D01*
X171220815Y-88038215D01*
X171141463Y-88134906D01*
X171082498Y-88245220D01*
X171060487Y-88317780D01*
X170928632Y-88185925D01*
X170685411Y-88023410D01*
X170415158Y-87911468D01*
X170128260Y-87854400D01*
X169835740Y-87854400D01*
X169548842Y-87911468D01*
X169278589Y-88023410D01*
X169125099Y-88125969D01*
X166592084Y-85592954D01*
X166775023Y-85527036D01*
X166890980Y-85465056D01*
X166957960Y-85224965D01*
X166172000Y-84439005D01*
X166157858Y-84453148D01*
X165978253Y-84273543D01*
X165992395Y-84259400D01*
X166351605Y-84259400D01*
X167137565Y-85045360D01*
X167377656Y-84978380D01*
X167494756Y-84729352D01*
X167561023Y-84462265D01*
X167573910Y-84187383D01*
X167532922Y-83915267D01*
X167439636Y-83656377D01*
X167377656Y-83540420D01*
X167137565Y-83473440D01*
X166351605Y-84259400D01*
X165992395Y-84259400D01*
X165206435Y-83473440D01*
X164966344Y-83540420D01*
X164902515Y-83676160D01*
X164870005Y-83597673D01*
X164717120Y-83368865D01*
X164522535Y-83174280D01*
X164293727Y-83021395D01*
X164216485Y-82989400D01*
X164293727Y-82957405D01*
X164522535Y-82804520D01*
X164717120Y-82609935D01*
X164870005Y-82381127D01*
X164902000Y-82303885D01*
X164933995Y-82381127D01*
X165086880Y-82609935D01*
X165281465Y-82804520D01*
X165510273Y-82957405D01*
X165581943Y-82987092D01*
X165568977Y-82991764D01*
X165453020Y-83053744D01*
X165386040Y-83293835D01*
X166172000Y-84079795D01*
X166957960Y-83293835D01*
X166890980Y-83053744D01*
X166755240Y-82989915D01*
X166833727Y-82957405D01*
X167062535Y-82804520D01*
X167257120Y-82609935D01*
X167410005Y-82381127D01*
X167515314Y-82126890D01*
X167569000Y-81856992D01*
X167569000Y-81581808D01*
X167515314Y-81311910D01*
X167410005Y-81057673D01*
X167257120Y-80828865D01*
X167062535Y-80634280D01*
X166833727Y-80481395D01*
X166579490Y-80376086D01*
X166309592Y-80322400D01*
X166034408Y-80322400D01*
X165764510Y-80376086D01*
X165510273Y-80481395D01*
X165281465Y-80634280D01*
X165086880Y-80828865D01*
X164933995Y-81057673D01*
X164902000Y-81134915D01*
X164870005Y-81057673D01*
X164717120Y-80828865D01*
X164522535Y-80634280D01*
X164293727Y-80481395D01*
X164039490Y-80376086D01*
X163769592Y-80322400D01*
X163494408Y-80322400D01*
X163224510Y-80376086D01*
X162970273Y-80481395D01*
X162741465Y-80634280D01*
X162546880Y-80828865D01*
X162393995Y-81057673D01*
X162362000Y-81134915D01*
X162330005Y-81057673D01*
X162177120Y-80828865D01*
X161982535Y-80634280D01*
X161753727Y-80481395D01*
X161499490Y-80376086D01*
X161229592Y-80322400D01*
X160954408Y-80322400D01*
X160684510Y-80376086D01*
X160430273Y-80481395D01*
X160201465Y-80634280D01*
X160006880Y-80828865D01*
X159853995Y-81057673D01*
X159824308Y-81129343D01*
X159819636Y-81116377D01*
X159757656Y-81000420D01*
X159517565Y-80933440D01*
X158731605Y-81719400D01*
X158745748Y-81733543D01*
X158566143Y-81913148D01*
X158552000Y-81899005D01*
X158537858Y-81913148D01*
X158358253Y-81733543D01*
X158372395Y-81719400D01*
X157586435Y-80933440D01*
X157346344Y-81000420D01*
X157282515Y-81136160D01*
X157250005Y-81057673D01*
X157097120Y-80828865D01*
X157022090Y-80753835D01*
X157766040Y-80753835D01*
X158552000Y-81539795D01*
X159337960Y-80753835D01*
X159270980Y-80513744D01*
X159021952Y-80396644D01*
X158754865Y-80330377D01*
X158479983Y-80317490D01*
X158207867Y-80358478D01*
X157948977Y-80451764D01*
X157833020Y-80513744D01*
X157766040Y-80753835D01*
X157022090Y-80753835D01*
X156902535Y-80634280D01*
X156673727Y-80481395D01*
X156419490Y-80376086D01*
X156149592Y-80322400D01*
X155874408Y-80322400D01*
X155604510Y-80376086D01*
X155350273Y-80481395D01*
X155121465Y-80634280D01*
X154926880Y-80828865D01*
X154773995Y-81057673D01*
X154744308Y-81129343D01*
X154739636Y-81116377D01*
X154677656Y-81000420D01*
X154437565Y-80933440D01*
X153651605Y-81719400D01*
X153665748Y-81733543D01*
X153486143Y-81913148D01*
X153472000Y-81899005D01*
X153457858Y-81913148D01*
X153278253Y-81733543D01*
X153292395Y-81719400D01*
X153278253Y-81705258D01*
X153457858Y-81525653D01*
X153472000Y-81539795D01*
X154257960Y-80753835D01*
X154190980Y-80513744D01*
X153941952Y-80396644D01*
X153674865Y-80330377D01*
X153399983Y-80317490D01*
X153127867Y-80358478D01*
X152868977Y-80451764D01*
X152753020Y-80513744D01*
X152686041Y-80753833D01*
X152569631Y-80637423D01*
X152557092Y-80649962D01*
X152117130Y-80210000D01*
X171465279Y-80210000D01*
X171944134Y-80256953D01*
G36*
X150270273Y-85497405D02*
G01*
X150347515Y-85529400D01*
X150270273Y-85561395D01*
X150041465Y-85714280D01*
X149846880Y-85908865D01*
X149693995Y-86137673D01*
X149662000Y-86214915D01*
X149630005Y-86137673D01*
X149491037Y-85929693D01*
X150062293Y-85358437D01*
X150270273Y-85497405D01*
G37*
X150270273Y-85497405D02*
X150347515Y-85529400D01*
X150270273Y-85561395D01*
X150041465Y-85714280D01*
X149846880Y-85908865D01*
X149693995Y-86137673D01*
X149662000Y-86214915D01*
X149630005Y-86137673D01*
X149491037Y-85929693D01*
X150062293Y-85358437D01*
X150270273Y-85497405D01*
G36*
X129373995Y-82381127D02*
G01*
X129526880Y-82609935D01*
X129721465Y-82804520D01*
X129950273Y-82957405D01*
X130027515Y-82989400D01*
X129950273Y-83021395D01*
X129721465Y-83174280D01*
X129526880Y-83368865D01*
X129373995Y-83597673D01*
X129344308Y-83669343D01*
X129339636Y-83656377D01*
X129277656Y-83540420D01*
X129037565Y-83473440D01*
X128251605Y-84259400D01*
X128265748Y-84273543D01*
X128086143Y-84453148D01*
X128072000Y-84439005D01*
X128057858Y-84453148D01*
X127878253Y-84273543D01*
X127892395Y-84259400D01*
X127878253Y-84245258D01*
X128057858Y-84065653D01*
X128072000Y-84079795D01*
X128857960Y-83293835D01*
X128790980Y-83053744D01*
X128655240Y-82989915D01*
X128733727Y-82957405D01*
X128962535Y-82804520D01*
X129157120Y-82609935D01*
X129310005Y-82381127D01*
X129342000Y-82303885D01*
X129373995Y-82381127D01*
G37*
X129373995Y-82381127D02*
X129526880Y-82609935D01*
X129721465Y-82804520D01*
X129950273Y-82957405D01*
X130027515Y-82989400D01*
X129950273Y-83021395D01*
X129721465Y-83174280D01*
X129526880Y-83368865D01*
X129373995Y-83597673D01*
X129344308Y-83669343D01*
X129339636Y-83656377D01*
X129277656Y-83540420D01*
X129037565Y-83473440D01*
X128251605Y-84259400D01*
X128265748Y-84273543D01*
X128086143Y-84453148D01*
X128072000Y-84439005D01*
X128057858Y-84453148D01*
X127878253Y-84273543D01*
X127892395Y-84259400D01*
X127878253Y-84245258D01*
X128057858Y-84065653D01*
X128072000Y-84079795D01*
X128857960Y-83293835D01*
X128790980Y-83053744D01*
X128655240Y-82989915D01*
X128733727Y-82957405D01*
X128962535Y-82804520D01*
X129157120Y-82609935D01*
X129310005Y-82381127D01*
X129342000Y-82303885D01*
X129373995Y-82381127D01*
G36*
X148585748Y-84245258D02*
G01*
X148571605Y-84259400D01*
X148585748Y-84273543D01*
X148406143Y-84453148D01*
X148392000Y-84439005D01*
X148377858Y-84453148D01*
X148198253Y-84273543D01*
X148212395Y-84259400D01*
X148198253Y-84245258D01*
X148377858Y-84065653D01*
X148392000Y-84079795D01*
X148406143Y-84065653D01*
X148585748Y-84245258D01*
G37*
X148585748Y-84245258D02*
X148571605Y-84259400D01*
X148585748Y-84273543D01*
X148406143Y-84453148D01*
X148392000Y-84439005D01*
X148377858Y-84453148D01*
X148198253Y-84273543D01*
X148212395Y-84259400D01*
X148198253Y-84245258D01*
X148377858Y-84065653D01*
X148392000Y-84079795D01*
X148406143Y-84065653D01*
X148585748Y-84245258D01*
G36*
X123897819Y-80588951D02*
G01*
X123877885Y-80594998D01*
X123752365Y-80662090D01*
X123710980Y-80513744D01*
X123461952Y-80396644D01*
X123194865Y-80330377D01*
X122919983Y-80317490D01*
X122647867Y-80358478D01*
X122388977Y-80451764D01*
X122273020Y-80513744D01*
X122206040Y-80753835D01*
X122992000Y-81539795D01*
X123006143Y-81525653D01*
X123185748Y-81705258D01*
X123171605Y-81719400D01*
X123185748Y-81733543D01*
X123006143Y-81913148D01*
X122992000Y-81899005D01*
X122977858Y-81913148D01*
X122798253Y-81733543D01*
X122812395Y-81719400D01*
X122026435Y-80933440D01*
X121786344Y-81000420D01*
X121722515Y-81136160D01*
X121690005Y-81057673D01*
X121537120Y-80828865D01*
X121342535Y-80634280D01*
X121113727Y-80481395D01*
X120859490Y-80376086D01*
X120589592Y-80322400D01*
X120314408Y-80322400D01*
X120044510Y-80376086D01*
X119790273Y-80481395D01*
X119561465Y-80634280D01*
X119366880Y-80828865D01*
X119213995Y-81057673D01*
X119182000Y-81134915D01*
X119150005Y-81057673D01*
X118997120Y-80828865D01*
X118802535Y-80634280D01*
X118573727Y-80481395D01*
X118319490Y-80376086D01*
X118049592Y-80322400D01*
X117774408Y-80322400D01*
X117504510Y-80376086D01*
X117250273Y-80481395D01*
X117021465Y-80634280D01*
X116826880Y-80828865D01*
X116740995Y-80957400D01*
X113377322Y-80957400D01*
X113339899Y-80953714D01*
X113302476Y-80957400D01*
X113302474Y-80957400D01*
X113190522Y-80968426D01*
X113046885Y-81011998D01*
X112914508Y-81082755D01*
X112798478Y-81177978D01*
X112774621Y-81207048D01*
X110210000Y-83771670D01*
X110210000Y-82534721D01*
X110256953Y-82055866D01*
X110385938Y-81628645D01*
X110595446Y-81234616D01*
X110877499Y-80888786D01*
X111221351Y-80604327D01*
X111613910Y-80392071D01*
X112040213Y-80260108D01*
X112516964Y-80210000D01*
X124276769Y-80210000D01*
X123897819Y-80588951D01*
G37*
X123897819Y-80588951D02*
X123877885Y-80594998D01*
X123752365Y-80662090D01*
X123710980Y-80513744D01*
X123461952Y-80396644D01*
X123194865Y-80330377D01*
X122919983Y-80317490D01*
X122647867Y-80358478D01*
X122388977Y-80451764D01*
X122273020Y-80513744D01*
X122206040Y-80753835D01*
X122992000Y-81539795D01*
X123006143Y-81525653D01*
X123185748Y-81705258D01*
X123171605Y-81719400D01*
X123185748Y-81733543D01*
X123006143Y-81913148D01*
X122992000Y-81899005D01*
X122977858Y-81913148D01*
X122798253Y-81733543D01*
X122812395Y-81719400D01*
X122026435Y-80933440D01*
X121786344Y-81000420D01*
X121722515Y-81136160D01*
X121690005Y-81057673D01*
X121537120Y-80828865D01*
X121342535Y-80634280D01*
X121113727Y-80481395D01*
X120859490Y-80376086D01*
X120589592Y-80322400D01*
X120314408Y-80322400D01*
X120044510Y-80376086D01*
X119790273Y-80481395D01*
X119561465Y-80634280D01*
X119366880Y-80828865D01*
X119213995Y-81057673D01*
X119182000Y-81134915D01*
X119150005Y-81057673D01*
X118997120Y-80828865D01*
X118802535Y-80634280D01*
X118573727Y-80481395D01*
X118319490Y-80376086D01*
X118049592Y-80322400D01*
X117774408Y-80322400D01*
X117504510Y-80376086D01*
X117250273Y-80481395D01*
X117021465Y-80634280D01*
X116826880Y-80828865D01*
X116740995Y-80957400D01*
X113377322Y-80957400D01*
X113339899Y-80953714D01*
X113302476Y-80957400D01*
X113302474Y-80957400D01*
X113190522Y-80968426D01*
X113046885Y-81011998D01*
X112914508Y-81082755D01*
X112798478Y-81177978D01*
X112774621Y-81207048D01*
X110210000Y-83771670D01*
X110210000Y-82534721D01*
X110256953Y-82055866D01*
X110385938Y-81628645D01*
X110595446Y-81234616D01*
X110877499Y-80888786D01*
X111221351Y-80604327D01*
X111613910Y-80392071D01*
X112040213Y-80260108D01*
X112516964Y-80210000D01*
X124276769Y-80210000D01*
X123897819Y-80588951D01*
G36*
X133937758Y-80753112D02*
G01*
X133870980Y-80513744D01*
X133621952Y-80396644D01*
X133354865Y-80330377D01*
X133079983Y-80317490D01*
X132807867Y-80358478D01*
X132548977Y-80451764D01*
X132433020Y-80513744D01*
X132366040Y-80753835D01*
X133152000Y-81539795D01*
X133166143Y-81525653D01*
X133345748Y-81705258D01*
X133331605Y-81719400D01*
X133345748Y-81733543D01*
X133166143Y-81913148D01*
X133152000Y-81899005D01*
X132366040Y-82684965D01*
X132433020Y-82925056D01*
X132568760Y-82988885D01*
X132490273Y-83021395D01*
X132261465Y-83174280D01*
X132066880Y-83368865D01*
X131913995Y-83597673D01*
X131882000Y-83674915D01*
X131850005Y-83597673D01*
X131697120Y-83368865D01*
X131502535Y-83174280D01*
X131273727Y-83021395D01*
X131196485Y-82989400D01*
X131273727Y-82957405D01*
X131502535Y-82804520D01*
X131697120Y-82609935D01*
X131850005Y-82381127D01*
X131879692Y-82309457D01*
X131884364Y-82322423D01*
X131946344Y-82438380D01*
X132186435Y-82505360D01*
X132972395Y-81719400D01*
X132186435Y-80933440D01*
X131946344Y-81000420D01*
X131882515Y-81136160D01*
X131850005Y-81057673D01*
X131697120Y-80828865D01*
X131502535Y-80634280D01*
X131273727Y-80481395D01*
X131019490Y-80376086D01*
X130749592Y-80322400D01*
X130474408Y-80322400D01*
X130322789Y-80352559D01*
X130180230Y-80210000D01*
X134480869Y-80210000D01*
X133937758Y-80753112D01*
G37*
X133937758Y-80753112D02*
X133870980Y-80513744D01*
X133621952Y-80396644D01*
X133354865Y-80330377D01*
X133079983Y-80317490D01*
X132807867Y-80358478D01*
X132548977Y-80451764D01*
X132433020Y-80513744D01*
X132366040Y-80753835D01*
X133152000Y-81539795D01*
X133166143Y-81525653D01*
X133345748Y-81705258D01*
X133331605Y-81719400D01*
X133345748Y-81733543D01*
X133166143Y-81913148D01*
X133152000Y-81899005D01*
X132366040Y-82684965D01*
X132433020Y-82925056D01*
X132568760Y-82988885D01*
X132490273Y-83021395D01*
X132261465Y-83174280D01*
X132066880Y-83368865D01*
X131913995Y-83597673D01*
X131882000Y-83674915D01*
X131850005Y-83597673D01*
X131697120Y-83368865D01*
X131502535Y-83174280D01*
X131273727Y-83021395D01*
X131196485Y-82989400D01*
X131273727Y-82957405D01*
X131502535Y-82804520D01*
X131697120Y-82609935D01*
X131850005Y-82381127D01*
X131879692Y-82309457D01*
X131884364Y-82322423D01*
X131946344Y-82438380D01*
X132186435Y-82505360D01*
X132972395Y-81719400D01*
X132186435Y-80933440D01*
X131946344Y-81000420D01*
X131882515Y-81136160D01*
X131850005Y-81057673D01*
X131697120Y-80828865D01*
X131502535Y-80634280D01*
X131273727Y-80481395D01*
X131019490Y-80376086D01*
X130749592Y-80322400D01*
X130474408Y-80322400D01*
X130322789Y-80352559D01*
X130180230Y-80210000D01*
X134480869Y-80210000D01*
X133937758Y-80753112D01*
G36*
X140965748Y-81705258D02*
G01*
X140951605Y-81719400D01*
X140965748Y-81733543D01*
X140786143Y-81913148D01*
X140772000Y-81899005D01*
X140757858Y-81913148D01*
X140578253Y-81733543D01*
X140592395Y-81719400D01*
X140578253Y-81705258D01*
X140757858Y-81525653D01*
X140772000Y-81539795D01*
X140786143Y-81525653D01*
X140965748Y-81705258D01*
G37*
X140965748Y-81705258D02*
X140951605Y-81719400D01*
X140965748Y-81733543D01*
X140786143Y-81913148D01*
X140772000Y-81899005D01*
X140757858Y-81913148D01*
X140578253Y-81733543D01*
X140592395Y-81719400D01*
X140578253Y-81705258D01*
X140757858Y-81525653D01*
X140772000Y-81539795D01*
X140786143Y-81525653D01*
X140965748Y-81705258D01*
%TD*%
M02*
